<?xml version="1.0" standalone="no"?>
<!DOCTYPE svg PUBLIC "-//W3C//DTD SVG 20010904//EN"
 "http://www.w3.org/TR/2001/REC-SVG-20010904/DTD/svg10.dtd">
<svg version="1.0" xmlns="http://www.w3.org/2000/svg"
 width="2362.000000pt" height="2362.000000pt" viewBox="0 0 2362.000000 2362.000000"
 preserveAspectRatio="xMidYMid meet">
<metadata>
Created by potrace 1.14, written by Peter Selinger 2001-2017
</metadata>
<g transform="translate(0.000000,2362.000000) scale(0.100000,-0.100000)"
fill="#000000" stroke="none">
<path d="M6533 21036 c5 -13 3 -15 -11 -7 -11 6 -24 6 -32 1 -9 -6 -17 -5 -22
3 -6 9 -10 9 -17 -2 -7 -11 -9 -11 -14 0 -3 8 -6 9 -6 3 -1 -7 -15 -10 -37 -7
-19 2 -33 0 -30 -5 6 -10 -24 -9 -41 1 -6 4 -14 3 -18 -2 -3 -6 -13 -7 -22 -4
-10 4 -14 2 -10 -4 5 -7 -4 -8 -28 -3 -23 5 -35 4 -38 -4 -3 -8 -8 -7 -19 2
-12 9 -18 10 -23 2 -4 -6 -13 -9 -21 -6 -7 3 -15 2 -18 -2 -3 -5 -30 -8 -60
-8 -31 1 -56 -3 -56 -7 0 -5 -4 -5 -10 -2 -5 3 -10 0 -10 -7 0 -8 -3 -9 -8 -3
-9 12 -36 19 -28 7 3 -5 -13 -9 -35 -10 -29 -1 -38 1 -33 11 4 6 -3 2 -15 -11
-17 -17 -26 -20 -36 -12 -10 8 -15 8 -20 0 -4 -6 -13 -9 -19 -7 -7 3 -19 1
-27 -3 -7 -5 -18 -5 -25 1 -7 6 -16 4 -24 -6 -9 -11 -16 -12 -26 -4 -9 7 -20
6 -40 -8 -16 -10 -29 -17 -31 -15 -2 1 -4 2 -5 1 -2 0 -24 -2 -50 -3 -26 -2
-53 -7 -60 -13 -7 -5 -25 -8 -41 -7 -16 2 -25 -1 -21 -7 3 -6 -5 -8 -20 -5
-14 3 -28 0 -32 -5 -3 -6 -12 -8 -20 -5 -8 3 -14 2 -14 -3 0 -4 -13 -7 -30 -6
-16 1 -30 -2 -30 -6 0 -5 -7 -6 -15 -3 -8 4 -15 2 -15 -4 0 -5 -14 -9 -31 -8
-18 1 -33 -3 -36 -11 -4 -10 -9 -11 -19 -2 -11 9 -15 8 -20 -4 -3 -9 -12 -13
-20 -10 -8 3 -14 -1 -14 -8 0 -11 -3 -11 -10 1 -7 12 -10 12 -10 1 0 -7 -6
-11 -13 -8 -7 3 -24 -1 -37 -8 -13 -7 -30 -11 -37 -8 -7 3 -13 0 -13 -7 0 -6
-4 -9 -8 -6 -5 3 -21 -1 -36 -9 -14 -8 -24 -10 -21 -5 3 6 -1 7 -9 4 -9 -3
-16 -9 -16 -13 0 -4 -10 -7 -22 -6 -13 1 -31 -4 -42 -11 -10 -7 -25 -10 -32
-7 -8 3 -14 0 -14 -6 0 -6 -9 -11 -20 -11 -12 0 -34 -7 -50 -15 -17 -9 -30
-13 -30 -9 0 4 -7 1 -15 -6 -9 -7 -18 -10 -22 -7 -3 4 -15 0 -27 -8 -11 -8
-30 -15 -42 -15 -12 0 -25 -8 -28 -17 -5 -12 -10 -13 -18 -5 -8 8 -15 7 -25
-4 -8 -8 -23 -14 -33 -14 -10 0 -22 -5 -25 -10 -4 -6 -11 -8 -16 -5 -5 4 -9
-2 -10 -12 0 -11 -3 -13 -6 -5 -4 10 -10 9 -30 -4 -18 -11 -23 -12 -18 -3 4 9
2 9 -7 -1 -7 -8 -22 -17 -33 -18 -11 -2 -23 -9 -26 -14 -4 -6 -12 -7 -18 -4
-6 4 -11 2 -11 -4 0 -7 -6 -10 -12 -8 -7 3 -21 -4 -32 -13 -10 -10 -23 -16
-28 -13 -4 3 -8 1 -8 -5 0 -5 -11 -8 -24 -5 -17 3 -28 -2 -35 -13 -5 -10 -12
-17 -15 -15 -14 6 -27 1 -21 -8 3 -5 0 -10 -7 -11 -29 -1 -51 -8 -57 -17 -3
-6 -15 -12 -26 -14 -11 -1 -26 -9 -33 -16 -8 -7 -18 -10 -23 -7 -5 4 -9 1 -9
-4 0 -6 -7 -11 -15 -11 -8 0 -15 -5 -15 -11 0 -5 -4 -8 -9 -5 -5 3 -14 -1 -21
-9 -7 -8 -16 -12 -21 -9 -5 3 -12 -1 -15 -10 -3 -8 -12 -12 -20 -9 -8 3 -14
-1 -14 -8 0 -7 -3 -9 -7 -6 -3 4 -18 -3 -31 -15 -14 -13 -22 -17 -18 -10 7 11
4 11 -13 0 -12 -7 -21 -16 -21 -20 0 -5 -7 -8 -15 -8 -8 0 -15 -6 -15 -12 0
-9 -4 -8 -10 2 -5 8 -10 10 -10 4 0 -12 -80 -60 -93 -56 -5 1 -6 -2 -2 -7 3
-6 -6 -13 -20 -17 -14 -3 -25 -11 -25 -17 0 -6 -3 -8 -6 -4 -4 3 -26 -7 -50
-23 -23 -17 -47 -30 -53 -30 -6 0 -11 -4 -11 -10 0 -5 -7 -10 -15 -10 -8 0
-15 -4 -15 -10 0 -5 -7 -10 -15 -10 -8 0 -15 -4 -15 -10 0 -5 -7 -10 -15 -10
-8 0 -15 -4 -15 -10 0 -5 -6 -10 -13 -10 -7 0 -23 -9 -35 -20 -12 -11 -26 -20
-32 -20 -5 0 -10 -4 -10 -10 0 -5 -7 -10 -15 -10 -8 0 -15 -5 -15 -12 0 -6 -3
-9 -6 -5 -4 3 -12 1 -19 -6 -7 -7 -23 -19 -35 -27 -12 -8 -29 -21 -36 -28 -8
-7 -14 -11 -14 -7 0 3 -11 -6 -25 -20 -14 -14 -32 -25 -40 -25 -8 0 -14 -5
-12 -12 1 -7 -2 -12 -8 -13 -18 -1 -55 -32 -47 -40 4 -5 2 -5 -4 -2 -7 4 -23
-4 -35 -18 -13 -13 -29 -25 -36 -25 -7 0 -17 -9 -23 -21 -7 -11 -14 -18 -17
-15 -3 2 -16 -7 -29 -21 -13 -14 -24 -23 -24 -19 0 4 -16 -9 -35 -30 -19 -20
-35 -34 -35 -30 0 3 -8 -2 -19 -11 -54 -52 -125 -108 -132 -106 -5 2 -5 -5 -2
-14 4 -10 2 -14 -4 -10 -5 3 -20 -5 -31 -18 -12 -14 -26 -25 -31 -25 -5 0 -13
-9 -16 -21 -4 -12 -12 -18 -21 -15 -13 5 -18 -6 -15 -26 0 -5 -5 -8 -13 -8 -8
0 -16 -7 -20 -15 -3 -8 -13 -15 -21 -15 -9 0 -14 -3 -12 -7 5 -9 -39 -54 -45
-47 -3 2 -10 -7 -17 -20 -7 -13 -24 -30 -37 -37 -13 -7 -22 -14 -20 -17 7 -6
-32 -42 -46 -42 -6 0 -9 -3 -6 -6 8 -7 -40 -54 -54 -54 -6 0 -9 -3 -5 -6 8 -8
-18 -34 -33 -34 -6 0 -9 -4 -6 -9 3 -4 -8 -19 -24 -31 -17 -13 -28 -25 -26
-28 3 -2 -11 -17 -30 -34 -19 -16 -31 -34 -28 -39 3 -5 0 -8 -8 -7 -7 2 -12
-3 -11 -9 2 -7 0 -12 -5 -10 -4 1 -7 0 -7 -3 0 -3 -18 -22 -40 -43 -21 -20
-36 -37 -32 -37 4 0 -1 -8 -11 -18 -9 -11 -20 -17 -23 -15 -4 1 -10 -9 -13
-22 -4 -14 -11 -23 -16 -20 -5 3 -11 -4 -15 -15 -4 -11 -11 -18 -16 -15 -5 4
-9 -1 -9 -9 0 -8 -8 -20 -17 -25 -10 -6 -15 -11 -10 -11 7 0 -24 -38 -66 -82
-9 -10 -14 -18 -10 -18 3 0 -4 -9 -17 -20 -13 -11 -19 -20 -15 -20 4 0 -2 -8
-13 -19 -12 -10 -19 -21 -15 -25 3 -3 2 -6 -4 -6 -5 0 -25 -22 -44 -50 -19
-27 -37 -50 -40 -50 -4 0 -10 -11 -13 -25 -4 -14 -10 -24 -15 -21 -8 5 -36
-43 -33 -56 1 -5 -5 -8 -14 -8 -8 0 -12 -4 -9 -10 3 -5 -2 -10 -12 -11 -12 0
-13 -2 -5 -6 10 -4 8 -9 -7 -20 -12 -8 -19 -18 -16 -23 3 -5 -3 -15 -13 -22
-11 -7 -20 -17 -21 -23 0 -5 -8 -18 -16 -27 -8 -10 -11 -18 -7 -18 4 0 -1 -5
-11 -11 -9 -6 -15 -14 -12 -20 4 -5 -1 -12 -9 -15 -9 -3 -16 -12 -16 -20 0 -7
-7 -17 -16 -22 -9 -5 -16 -13 -16 -18 -1 -18 -21 -54 -30 -54 -5 0 -7 -4 -4
-9 3 -5 -5 -20 -19 -35 -13 -14 -21 -26 -17 -26 4 0 -1 -5 -10 -11 -10 -5 -18
-15 -18 -22 0 -7 4 -6 10 3 6 9 10 10 10 3 0 -6 -10 -19 -22 -27 -12 -9 -19
-16 -14 -16 5 0 3 -6 -3 -13 -6 -8 -7 -18 -3 -22 4 -5 2 -5 -5 -1 -10 5 -31
-31 -24 -42 1 -2 -7 -12 -19 -22 -12 -11 -19 -24 -15 -29 3 -6 2 -11 -3 -11
-5 0 -17 -18 -27 -40 -10 -22 -22 -40 -27 -40 -5 0 -6 -4 -3 -10 3 -5 2 -10
-4 -10 -6 0 -8 -7 -5 -15 4 -8 1 -15 -4 -15 -6 0 -14 -10 -18 -22 -4 -13 -14
-29 -23 -36 -9 -8 -11 -11 -4 -8 8 5 8 0 0 -19 -7 -14 -16 -25 -20 -25 -5 0
-5 -5 -2 -10 3 -6 -1 -13 -10 -16 -9 -4 -14 -13 -11 -21 3 -7 -1 -16 -8 -19
-8 -3 -13 -13 -11 -22 1 -9 -3 -20 -9 -24 -6 -4 -11 -11 -12 -15 -3 -24 -27
-72 -34 -68 -4 3 -6 -4 -3 -15 3 -12 0 -20 -6 -20 -7 0 -10 -4 -6 -9 3 -6 -2
-14 -11 -19 -9 -5 -15 -12 -15 -15 4 -28 -1 -47 -10 -42 -6 4 -10 1 -8 -6 3
-28 -1 -40 -13 -33 -7 4 -10 4 -6 -1 4 -4 2 -15 -5 -23 -10 -13 -9 -14 2 -8 9
6 9 2 -2 -15 -9 -13 -17 -28 -18 -34 0 -5 -5 -9 -9 -8 -5 2 -7 -6 -5 -17 2
-11 -1 -20 -6 -20 -6 0 -7 -4 -4 -10 3 -5 1 -10 -6 -10 -7 0 -9 -3 -6 -7 4 -3
1 -13 -6 -21 -10 -13 -9 -14 3 -7 13 8 13 7 0 -9 -8 -10 -15 -25 -17 -34 -1
-9 -6 -18 -12 -20 -5 -2 -7 -10 -4 -18 3 -8 0 -14 -6 -14 -6 0 -11 -8 -11 -17
0 -22 -22 -83 -31 -83 -3 0 -6 -10 -5 -22 1 -13 -5 -29 -14 -36 -13 -12 -13
-13 0 -6 12 6 13 4 3 -7 -7 -7 -13 -21 -13 -31 0 -10 -5 -18 -11 -18 -6 0 -9
-7 -5 -15 3 -8 1 -15 -5 -15 -6 0 -8 -4 -5 -9 4 -5 0 -12 -6 -14 -9 -4 -9 -6
-1 -6 7 -1 4 -15 -8 -41 -11 -23 -17 -45 -14 -50 3 -6 1 -10 -5 -10 -7 0 -10
-7 -6 -15 3 -8 1 -15 -5 -15 -6 0 -7 -4 -4 -10 3 -5 2 -10 -4 -10 -6 0 -8 -7
-5 -15 4 -9 0 -15 -7 -15 -12 0 -12 -2 -1 -9 11 -6 10 -12 -5 -26 -10 -10 -17
-20 -15 -22 1 -2 2 -12 2 -24 0 -13 -4 -18 -12 -13 -9 5 -9 2 1 -9 9 -11 10
-17 2 -17 -6 0 -10 -3 -10 -7 1 -5 0 -10 -1 -13 -3 -8 -11 -44 -14 -60 -1 -9
-5 -21 -10 -28 -4 -6 -4 -16 -1 -22 3 -6 2 -10 -4 -10 -5 0 -8 -12 -6 -26 1
-14 -3 -28 -10 -30 -6 -3 -11 -22 -11 -43 1 -22 -2 -37 -6 -34 -5 2 -9 -3 -9
-11 -2 -25 -4 -30 -13 -45 -7 -11 -6 -12 5 -6 11 7 12 6 2 -7 -7 -8 -10 -18
-6 -21 3 -4 2 -7 -4 -7 -5 0 -9 -16 -8 -36 1 -21 -4 -38 -11 -41 -7 -2 -10
-11 -8 -18 3 -7 0 -23 -6 -35 -10 -18 -10 -21 2 -14 10 6 11 5 2 -7 -6 -8 -10
-24 -9 -36 1 -13 -3 -23 -8 -23 -5 0 -7 -7 -3 -15 3 -8 2 -15 -3 -15 -4 0 -8
-19 -9 -42 -1 -23 -5 -44 -10 -47 -4 -3 -8 -26 -9 -50 -1 -24 -7 -48 -15 -52
-11 -7 -11 -9 1 -9 11 0 11 -3 0 -17 -12 -15 -12 -16 1 -8 12 7 13 6 3 -7 -7
-8 -11 -29 -9 -46 2 -17 1 -31 -3 -30 -18 2 -22 -4 -11 -17 10 -12 10 -15 0
-15 -8 0 -10 -3 -7 -7 4 -3 1 -13 -6 -21 -10 -13 -9 -14 2 -8 10 7 11 3 5 -15
-4 -13 -8 -38 -8 -56 0 -17 -3 -30 -6 -28 -3 2 -6 -22 -7 -53 -2 -31 -8 -59
-15 -64 -8 -4 -9 -8 -2 -8 6 0 11 -7 11 -15 0 -8 -3 -15 -6 -15 -3 0 -7 -16
-7 -35 -1 -23 2 -32 10 -28 6 3 5 0 -1 -8 -7 -7 -13 -23 -13 -35 0 -13 -4 -26
-10 -29 -13 -8 -13 -25 1 -25 5 0 7 5 3 12 -4 7 -3 8 5 4 9 -6 9 -11 1 -21
-17 -20 -22 -77 -7 -69 9 5 9 4 0 -6 -6 -7 -9 -19 -6 -28 5 -11 3 -13 -8 -7
-12 8 -12 6 0 -8 7 -9 9 -17 4 -17 -5 0 -8 -14 -7 -30 1 -17 -2 -33 -7 -36 -5
-3 -7 -10 -3 -15 3 -5 11 -6 17 -2 7 4 6 0 -2 -10 -7 -9 -11 -23 -8 -32 4 -8
2 -17 -3 -20 -6 -4 -6 -14 1 -27 6 -11 7 -18 1 -14 -5 3 -9 -13 -7 -39 1 -25
-2 -45 -7 -45 -5 0 -4 -9 2 -20 8 -15 8 -20 -2 -20 -9 0 -9 -3 2 -10 11 -7 11
-10 2 -10 -10 0 -10 -5 -1 -21 6 -12 7 -19 1 -15 -5 3 -13 -1 -16 -10 -3 -8
-2 -13 2 -10 10 6 9 -80 0 -90 -4 -3 -3 -17 2 -30 6 -16 6 -24 -1 -24 -6 0 -7
-5 -4 -11 7 -11 9 -65 4 -156 -1 -34 -6 -50 -13 -46 -6 3 -5 0 1 -8 17 -17 17
-42 1 -33 -7 4 -5 -1 4 -12 17 -19 17 -21 0 -38 -9 -11 -11 -16 -4 -12 8 5 12
0 12 -14 0 -14 -4 -19 -12 -14 -10 6 -10 4 -1 -7 7 -7 13 -17 13 -22 0 -4 -6
-5 -13 -1 -6 4 -4 -1 5 -12 17 -19 17 -21 0 -38 -9 -11 -11 -16 -4 -12 8 5 12
0 12 -14 0 -12 -4 -18 -10 -15 -6 3 -7 -1 -4 -9 3 -9 11 -13 18 -9 6 3 2 -4
-9 -17 -11 -13 -14 -20 -7 -16 8 5 12 0 12 -14 0 -13 -4 -19 -12 -14 -7 5 -8
3 -2 -7 5 -8 10 -36 11 -62 2 -36 0 -46 -10 -41 -6 4 -4 -1 5 -12 17 -19 17
-21 0 -38 -9 -11 -11 -16 -4 -12 8 5 12 0 12 -14 0 -14 -4 -19 -12 -14 -10 6
-10 4 -1 -7 17 -17 17 -32 1 -23 -10 6 -10 5 -1 -7 6 -8 10 -29 9 -47 -1 -17
1 -38 5 -44 5 -7 1 -21 -9 -32 -9 -11 -11 -16 -5 -12 9 5 13 0 13 -14 0 -12
-4 -18 -10 -15 -6 3 -7 -1 -4 -9 3 -9 11 -13 18 -9 6 3 2 -4 -9 -17 -11 -13
-14 -20 -7 -16 8 5 12 0 12 -14 0 -14 -4 -19 -13 -14 -9 6 -9 4 1 -7 16 -17
16 -32 0 -23 -7 4 -5 -1 4 -12 17 -19 17 -21 0 -38 -9 -11 -11 -16 -5 -12 9 5
13 0 13 -14 0 -14 -4 -19 -12 -14 -11 6 -11 4 0 -7 16 -17 16 -32 0 -23 -10 6
-10 4 -1 -7 17 -17 17 -42 1 -33 -7 4 -5 -1 4 -12 17 -19 17 -21 0 -38 -9 -11
-11 -16 -4 -12 8 5 12 0 12 -14 0 -14 -4 -19 -12 -14 -10 6 -11 4 0 -7 16 -17
16 -32 0 -23 -7 4 -5 -1 4 -12 17 -19 17 -21 0 -38 -9 -11 -11 -16 -5 -12 9 5
13 0 13 -14 0 -12 -4 -18 -10 -15 -6 3 -7 -1 -4 -9 3 -9 11 -13 18 -9 6 3 2
-4 -9 -17 -11 -13 -14 -20 -8 -16 9 5 13 0 13 -14 0 -13 -4 -19 -12 -14 -7 5
-8 3 -2 -7 5 -8 10 -36 11 -62 2 -36 0 -46 -10 -41 -6 4 -4 -1 5 -12 17 -19
17 -21 0 -38 -9 -11 -11 -16 -5 -12 9 5 13 0 13 -14 0 -14 -4 -19 -12 -14 -10
6 -10 4 -1 -7 7 -7 13 -17 13 -22 0 -4 -6 -5 -13 -1 -9 6 -9 5 0 -7 6 -8 10
-29 9 -47 -1 -17 1 -38 5 -44 5 -7 1 -21 -9 -32 -9 -11 -11 -16 -4 -12 8 5 12
0 12 -14 0 -12 -4 -18 -10 -15 -6 3 -7 -1 -4 -9 3 -9 11 -13 18 -9 6 3 2 -4
-9 -17 -11 -13 -14 -20 -7 -16 8 5 12 0 12 -14 0 -14 -4 -19 -13 -14 -9 6 -9
4 0 -7 17 -17 17 -32 1 -23 -7 4 -5 -1 4 -12 17 -19 17 -21 0 -38 -9 -11 -11
-16 -4 -12 8 5 12 0 12 -14 0 -14 -4 -19 -12 -14 -10 6 -10 4 -1 -7 17 -17 17
-32 1 -23 -10 6 -10 4 -1 -7 17 -17 17 -42 1 -33 -7 4 -5 -1 4 -12 17 -19 17
-21 0 -38 -9 -11 -11 -16 -5 -12 9 5 13 0 13 -14 0 -14 -4 -19 -13 -14 -9 6
-9 4 0 -7 17 -17 17 -32 1 -23 -7 4 -5 -1 4 -12 17 -19 17 -21 0 -38 -9 -11
-11 -16 -4 -12 8 5 12 0 12 -14 0 -12 -4 -18 -10 -15 -6 3 -7 -1 -4 -9 3 -9
11 -13 18 -9 6 3 2 -4 -9 -17 -11 -13 -14 -20 -7 -16 8 5 12 0 12 -14 0 -13
-4 -19 -12 -14 -7 5 -8 3 -2 -7 5 -8 10 -36 11 -62 2 -36 0 -46 -10 -41 -6 4
-4 -1 5 -12 17 -19 17 -21 0 -38 -9 -11 -11 -16 -5 -12 9 5 13 0 13 -14 0 -14
-4 -19 -12 -14 -10 6 -10 4 -1 -7 17 -17 17 -32 1 -23 -10 6 -10 5 -1 -7 6 -8
10 -29 9 -47 -1 -17 1 -38 5 -44 5 -7 1 -21 -9 -32 -9 -11 -11 -16 -5 -12 9 5
13 0 13 -14 0 -12 -4 -18 -10 -15 -6 3 -7 -1 -4 -9 3 -9 11 -13 18 -9 6 3 2
-4 -9 -17 -11 -13 -14 -20 -7 -16 8 5 12 0 12 -14 0 -14 -4 -19 -12 -14 -10 6
-10 4 -1 -7 17 -17 17 -32 1 -23 -7 4 -5 -1 4 -12 17 -19 17 -21 0 -38 -9 -11
-11 -16 -5 -12 9 5 13 0 13 -14 0 -14 -4 -19 -12 -14 -10 6 -10 4 0 -7 16 -17
16 -32 0 -23 -10 6 -10 4 -1 -7 17 -17 17 -42 1 -33 -7 4 -5 -1 4 -12 17 -19
17 -21 0 -38 -9 -11 -11 -16 -5 -12 9 5 13 0 13 -14 0 -14 -4 -19 -12 -14 -10
6 -10 4 -1 -7 17 -17 17 -32 1 -23 -7 4 -5 -1 4 -12 17 -19 17 -21 0 -38 -9
-11 -11 -16 -5 -12 9 5 13 0 13 -14 0 -12 -4 -18 -10 -15 -6 3 -7 -1 -4 -9 3
-9 11 -13 18 -9 6 3 2 -4 -9 -17 -11 -13 -14 -20 -8 -16 9 5 13 0 13 -14 0
-13 -4 -19 -12 -14 -7 5 -8 3 -2 -7 5 -8 10 -36 11 -62 2 -36 0 -46 -10 -41
-6 4 -4 -1 5 -12 17 -19 17 -21 0 -38 -9 -11 -11 -16 -4 -12 8 5 12 0 12 -14
0 -14 -4 -19 -12 -14 -10 6 -10 4 -1 -7 17 -17 17 -32 1 -23 -10 6 -10 5 -1
-7 6 -8 10 -29 9 -47 -1 -17 1 -38 5 -44 5 -7 1 -21 -9 -32 -9 -11 -11 -16 -5
-12 9 5 13 0 13 -14 0 -12 -4 -18 -10 -15 -6 3 -7 -1 -4 -9 3 -9 11 -13 18 -9
6 3 2 -4 -9 -17 -11 -13 -14 -20 -8 -16 9 5 13 0 13 -14 0 -14 -4 -19 -13 -14
-9 6 -9 4 1 -7 16 -17 16 -32 -1 -23 -6 4 -4 -1 5 -12 17 -19 17 -21 0 -38 -9
-11 -11 -16 -5 -12 9 5 13 0 13 -14 0 -14 -4 -19 -12 -14 -11 6 -11 4 0 -7 16
-17 16 -32 0 -23 -10 6 -10 4 0 -7 6 -7 12 -19 12 -27 0 -8 -5 -10 -12 -6 -7
4 -5 -1 4 -12 17 -19 17 -21 0 -38 -9 -11 -11 -16 -5 -12 9 5 13 0 13 -14 0
-14 -4 -19 -13 -14 -9 6 -9 4 1 -7 6 -7 12 -17 12 -22 0 -4 -6 -5 -12 -1 -7 4
-5 -1 4 -12 17 -19 17 -21 0 -38 -9 -11 -11 -16 -4 -12 8 5 12 0 12 -14 0 -12
-4 -18 -10 -15 -6 3 -7 -1 -4 -9 3 -9 11 -13 18 -9 6 3 2 -4 -9 -17 -11 -13
-14 -20 -8 -16 9 5 13 0 13 -14 0 -13 -4 -19 -12 -14 -7 5 -8 3 -2 -7 5 -8 10
-36 11 -62 2 -36 0 -46 -10 -41 -6 4 -4 -1 5 -12 17 -19 17 -21 0 -38 -9 -11
-11 -16 -5 -12 9 5 13 0 13 -14 0 -14 -4 -19 -13 -14 -9 6 -9 4 0 -7 17 -17
17 -32 1 -23 -10 6 -10 5 -1 -7 6 -8 10 -29 9 -47 -1 -17 1 -38 5 -44 5 -7 1
-21 -9 -32 -9 -11 -11 -16 -5 -12 9 5 13 0 13 -14 0 -12 -4 -18 -10 -15 -6 3
-7 -1 -4 -9 3 -9 11 -13 18 -9 6 3 2 -4 -9 -17 -11 -13 -14 -20 -8 -16 9 5 13
0 13 -14 0 -14 -4 -19 -12 -14 -10 6 -10 4 -1 -7 17 -17 17 -32 1 -23 -7 4 -5
-1 4 -12 17 -19 17 -21 0 -38 -9 -11 -11 -16 -4 -12 8 5 12 0 12 -14 0 -14 -4
-19 -12 -14 -10 6 -10 4 -1 -7 7 -7 13 -17 13 -22 0 -4 -6 -5 -13 -1 -9 6 -9
4 1 -7 6 -7 12 -19 12 -27 0 -8 -5 -10 -12 -6 -7 4 -5 -1 4 -12 17 -19 17 -21
0 -38 -9 -11 -11 -16 -5 -12 9 5 13 0 13 -14 0 -14 -4 -19 -12 -14 -10 6 -10
4 -1 -7 17 -17 17 -32 1 -23 -7 4 -5 -1 4 -12 17 -19 17 -21 0 -38 -9 -11 -11
-16 -4 -12 8 5 12 0 12 -14 0 -12 -4 -18 -10 -15 -6 3 -7 -1 -4 -9 3 -9 11
-13 18 -9 6 3 2 -4 -9 -17 -11 -13 -14 -20 -7 -16 8 5 12 0 12 -14 0 -13 -4
-19 -12 -14 -7 5 -8 3 -2 -7 5 -8 10 -36 11 -62 2 -36 0 -46 -10 -41 -6 4 -4
-1 5 -12 17 -19 17 -21 0 -38 -9 -11 -11 -16 -4 -12 8 5 12 0 12 -14 0 -14 -4
-19 -12 -14 -10 6 -11 4 0 -7 16 -17 16 -32 -1 -23 -9 6 -9 5 0 -7 6 -8 10
-29 9 -47 -1 -17 1 -38 5 -44 5 -7 1 -21 -9 -32 -9 -11 -11 -16 -5 -12 9 5 13
0 13 -14 0 -12 -4 -18 -10 -15 -6 3 -7 -1 -4 -9 3 -9 11 -13 18 -9 6 3 2 -4
-9 -17 -11 -13 -14 -20 -7 -16 8 5 12 0 12 -14 0 -14 -4 -19 -13 -14 -9 6 -9
4 0 -7 17 -17 17 -32 1 -23 -7 4 -5 -1 4 -12 17 -19 17 -21 0 -38 -9 -11 -11
-16 -5 -12 9 5 13 0 13 -14 0 -14 -4 -19 -13 -14 -9 6 -9 4 1 -7 16 -17 16
-32 -1 -23 -9 6 -9 4 1 -7 16 -17 16 -42 -1 -33 -6 4 -4 -1 5 -12 17 -19 17
-21 0 -38 -9 -11 -11 -16 -4 -12 8 5 12 0 12 -14 0 -14 -4 -19 -13 -14 -9 6
-9 4 0 -7 17 -17 17 -32 0 -23 -6 4 -4 -1 5 -12 17 -19 17 -21 0 -38 -9 -11
-11 -16 -5 -12 9 5 13 0 13 -14 0 -12 -4 -18 -10 -15 -6 3 -7 -1 -4 -9 3 -9
11 -13 18 -9 6 3 2 -4 -9 -17 -11 -13 -14 -20 -8 -16 9 5 13 0 13 -14 0 -13
-4 -19 -12 -14 -7 5 -8 3 -2 -7 5 -8 10 -36 11 -62 2 -36 0 -46 -10 -41 -6 4
-4 -1 5 -12 17 -19 17 -21 0 -38 -9 -11 -11 -16 -5 -12 9 5 13 0 13 -14 0 -14
-4 -19 -12 -14 -10 6 -11 4 0 -7 16 -17 16 -32 0 -23 -10 6 -10 5 -1 -7 6 -8
10 -29 9 -47 -1 -17 1 -38 5 -44 5 -7 1 -21 -9 -32 -9 -11 -11 -16 -5 -12 9 5
13 0 13 -14 0 -12 -4 -18 -10 -15 -6 3 -7 -1 -4 -9 3 -9 11 -13 18 -9 6 3 2
-4 -9 -17 -11 -13 -14 -20 -8 -16 9 5 13 0 13 -14 0 -14 -4 -19 -12 -14 -10 6
-11 4 0 -7 16 -17 16 -32 0 -23 -7 4 -5 -1 4 -12 17 -19 17 -21 0 -38 -9 -11
-11 -16 -5 -12 9 5 13 0 13 -14 0 -14 -4 -19 -12 -14 -11 6 -11 4 0 -7 6 -7
12 -17 12 -22 0 -4 -6 -5 -12 -1 -10 6 -11 4 0 -7 16 -17 16 -42 0 -33 -7 4
-5 -1 4 -12 17 -19 17 -21 0 -38 -9 -11 -11 -16 -5 -12 9 5 13 0 13 -14 0 -14
-4 -19 -12 -14 -10 6 -10 4 -1 -7 7 -7 13 -17 13 -22 0 -4 -6 -5 -13 -1 -6 4
-4 -1 5 -12 17 -19 17 -21 0 -38 -9 -11 -11 -16 -5 -12 9 5 13 0 13 -14 0 -12
-4 -18 -10 -15 -6 3 -7 -1 -4 -9 3 -9 11 -13 18 -9 6 3 2 -4 -9 -17 -11 -13
-14 -20 -8 -16 9 5 13 0 13 -14 0 -13 -4 -19 -12 -14 -7 5 -8 3 -2 -7 5 -8 10
-36 11 -62 2 -36 0 -46 -10 -41 -6 4 -4 -1 5 -12 17 -19 17 -21 0 -38 -9 -11
-11 -16 -5 -12 9 5 13 0 13 -14 0 -14 -4 -19 -13 -14 -9 6 -9 4 0 -7 7 -7 13
-17 13 -22 0 -4 -6 -5 -13 -1 -9 6 -9 5 0 -7 6 -8 10 -29 9 -47 -1 -17 1 -38
5 -44 5 -7 1 -21 -9 -32 -9 -11 -11 -16 -4 -12 8 5 12 0 12 -14 0 -12 -4 -18
-10 -15 -6 3 -7 -1 -4 -9 3 -9 11 -13 18 -9 6 3 2 -4 -9 -17 -11 -13 -14 -20
-8 -16 9 5 13 0 13 -14 0 -14 -4 -19 -13 -14 -9 6 -9 4 0 -7 17 -17 17 -32 1
-23 -7 4 -5 -1 4 -12 17 -19 17 -21 0 -38 -9 -11 -11 -16 -4 -12 8 5 12 0 12
-14 0 -14 -4 -19 -13 -14 -9 6 -9 4 0 -7 17 -17 17 -32 1 -23 -11 6 -11 4 0
-7 16 -17 16 -42 0 -33 -7 4 -5 -1 4 -12 17 -19 17 -21 0 -38 -9 -11 -11 -16
-4 -12 8 5 12 0 12 -14 0 -14 -4 -19 -13 -14 -9 6 -9 4 1 -7 6 -7 12 -17 12
-22 0 -4 -6 -5 -12 -1 -7 4 -5 -1 4 -12 17 -19 17 -21 0 -38 -9 -11 -11 -16
-5 -12 9 5 13 0 13 -14 0 -12 -4 -18 -10 -15 -6 3 -7 -1 -4 -9 3 -9 11 -13 18
-9 6 3 2 -4 -9 -17 -11 -13 -14 -20 -8 -16 9 5 13 0 13 -14 0 -13 -4 -19 -12
-14 -7 5 -8 3 -2 -7 5 -8 10 -36 11 -62 2 -36 0 -46 -10 -41 -6 4 -4 -1 5 -12
17 -19 17 -21 0 -38 -9 -11 -11 -16 -5 -12 9 5 13 0 13 -14 0 -14 -4 -19 -12
-14 -10 6 -10 4 -1 -7 7 -7 13 -17 13 -22 0 -4 -6 -5 -13 -1 -9 6 -9 5 0 -7 6
-8 10 -29 9 -47 -1 -17 1 -38 5 -44 5 -7 1 -21 -9 -32 -9 -11 -11 -16 -4 -12
8 5 12 0 12 -14 0 -12 -4 -18 -10 -15 -6 3 -7 -1 -4 -9 3 -9 11 -13 18 -9 6 3
2 -4 -9 -17 -11 -13 -14 -20 -7 -16 8 5 12 0 12 -14 0 -14 -4 -19 -12 -14 -10
6 -10 4 -1 -7 17 -17 17 -32 0 -23 -6 4 -4 -1 5 -12 17 -19 17 -21 0 -38 -9
-11 -11 -16 -5 -12 9 5 13 0 13 -14 0 -14 -4 -19 -12 -14 -10 6 -10 4 -1 -7
17 -17 17 -32 1 -23 -10 6 -10 4 -1 -7 17 -17 17 -42 1 -33 -7 4 -5 -1 4 -12
17 -19 17 -21 0 -38 -9 -11 -11 -16 -5 -12 9 5 13 0 13 -14 0 -14 -4 -19 -12
-14 -11 6 -11 4 0 -7 16 -17 16 -32 -1 -23 -6 4 -4 -1 5 -12 17 -19 17 -21 0
-38 -9 -11 -11 -16 -5 -12 9 5 13 0 13 -14 0 -12 -4 -18 -10 -15 -6 3 -7 -1
-4 -9 3 -9 11 -13 18 -9 6 3 2 -4 -9 -17 -11 -13 -14 -20 -8 -16 9 5 13 0 13
-14 0 -13 -4 -19 -12 -14 -7 5 -8 3 -2 -7 5 -8 10 -36 11 -62 2 -36 0 -46 -10
-41 -6 4 -4 -1 5 -12 17 -19 17 -21 0 -38 -9 -11 -11 -16 -5 -12 9 5 13 0 13
-14 0 -14 -4 -19 -13 -14 -9 6 -9 4 1 -7 6 -7 12 -17 12 -22 0 -4 -6 -5 -12
-1 -10 6 -10 5 -1 -7 6 -8 10 -29 9 -47 -1 -17 1 -38 5 -44 5 -7 1 -21 -9 -32
-9 -11 -11 -16 -5 -12 9 5 13 0 13 -14 0 -12 -4 -18 -10 -15 -6 3 -7 -1 -4 -9
3 -9 11 -13 18 -9 6 3 2 -4 -9 -17 -11 -13 -14 -20 -7 -16 8 5 12 0 12 -14 0
-14 -4 -19 -13 -14 -9 6 -9 4 1 -7 16 -17 16 -32 -1 -23 -6 4 -4 -1 5 -12 17
-19 17 -21 0 -38 -9 -11 -11 -16 -5 -12 9 5 13 0 13 -14 0 -14 -4 -19 -12 -14
-11 6 -11 4 0 -7 16 -17 16 -32 0 -23 -10 6 -11 4 -1 -7 17 -17 17 -42 1 -33
-7 4 -5 -1 4 -12 17 -19 17 -21 0 -38 -9 -11 -11 -16 -4 -12 8 5 12 0 12 -14
0 -14 -4 -19 -13 -14 -9 6 -9 4 1 -7 16 -17 16 -32 0 -23 -7 4 -5 -1 4 -12 17
-19 17 -21 0 -38 -9 -11 -11 -16 -5 -12 9 5 13 0 13 -14 0 -12 -4 -18 -10 -15
-6 3 -7 -1 -4 -9 3 -9 11 -13 18 -9 6 3 2 -4 -9 -17 -11 -13 -14 -20 -8 -16 9
5 13 0 13 -14 0 -13 -4 -19 -12 -14 -7 5 -8 3 -2 -7 5 -8 10 -36 11 -62 2 -36
0 -46 -10 -41 -6 4 -4 -1 5 -12 17 -19 17 -21 0 -38 -9 -11 -11 -16 -4 -12 8
5 12 0 12 -14 0 -14 -4 -19 -12 -14 -11 6 -11 4 0 -7 16 -17 16 -32 0 -23 -10
6 -10 5 -1 -7 6 -8 10 -29 9 -47 -1 -17 1 -38 5 -44 5 -7 1 -21 -9 -32 -9 -11
-11 -16 -5 -12 9 5 13 0 13 -14 0 -12 -4 -18 -10 -15 -6 3 -7 -1 -4 -9 3 -9
11 -13 18 -9 6 3 2 -4 -9 -17 -11 -13 -14 -20 -8 -16 9 5 13 0 13 -14 0 -14
-4 -19 -13 -14 -9 6 -9 4 0 -7 17 -17 17 -32 1 -23 -7 4 -5 -1 4 -12 17 -19
17 -21 0 -38 -9 -11 -11 -16 -5 -12 9 5 13 0 13 -14 0 -14 -4 -19 -12 -14 -11
6 -11 4 0 -7 16 -17 16 -32 -1 -23 -9 6 -9 4 1 -7 16 -17 16 -42 -1 -33 -6 4
-4 -1 5 -12 17 -19 17 -21 0 -38 -9 -11 -11 -16 -5 -12 9 5 13 0 13 -14 0 -14
-4 -19 -13 -14 -9 6 -9 4 1 -7 16 -17 16 -32 0 -23 -7 4 -5 -1 4 -12 17 -19
17 -21 0 -38 -9 -11 -11 -16 -5 -12 9 5 13 0 13 -14 0 -12 -4 -18 -10 -15 -6
3 -7 -1 -4 -9 3 -9 11 -13 18 -9 6 3 2 -4 -9 -17 -11 -13 -14 -20 -8 -16 9 5
13 0 13 -14 0 -13 -4 -19 -12 -14 -7 5 -8 3 -2 -7 5 -8 10 -36 11 -62 2 -36 0
-46 -10 -41 -6 4 -4 -1 5 -12 17 -19 17 -21 0 -38 -9 -11 -11 -15 -4 -11 10 5
13 0 10 -21 -2 -22 1 -28 19 -29 13 -1 23 3 23 9 0 8 2 8 8 0 8 -12 61 -12 80
0 7 4 18 4 25 -1 14 -11 47 -11 64 0 7 5 13 4 13 0 0 -5 13 -9 30 -9 16 -1 28
2 25 6 -4 7 17 7 35 0 15 -6 36 -4 48 4 7 5 17 5 25 -1 14 -11 47 -11 64 0 7
5 13 4 13 0 0 -5 13 -9 30 -9 16 -1 28 2 25 6 -4 7 17 7 35 0 15 -6 36 -4 47
4 8 5 18 5 25 -1 15 -11 48 -11 65 0 7 5 13 4 13 0 0 -5 11 -9 25 -9 14 0 25
5 25 11 0 6 3 6 8 -1 9 -14 64 -13 74 1 5 6 8 6 8 -1 0 -14 70 -13 70 1 0 6 4
5 8 -1 9 -14 64 -13 74 1 5 6 8 5 8 -2 0 -13 26 -13 47 0 6 4 14 3 17 -1 6
-11 46 -10 64 1 6 5 12 4 12 -1 0 -11 40 -10 59 2 10 6 12 5 7 -2 -8 -13 20
-12 42 1 6 5 12 4 12 0 0 -5 13 -9 30 -9 16 -1 28 2 25 6 -6 10 15 8 32 -3 6
-4 15 -3 18 3 4 7 12 7 18 2 14 -10 47 -10 64 1 7 5 13 4 13 -1 0 -11 40 -10
59 2 10 6 12 5 7 -2 -8 -13 20 -12 42 1 6 5 12 4 12 0 0 -5 13 -9 30 -9 16 -1
28 2 25 6 -3 5 3 7 12 5 10 -2 18 -4 18 -5 0 -1 10 -3 23 -4 12 -2 22 2 22 8
0 7 3 7 8 0 9 -14 64 -13 74 1 5 6 8 6 8 -1 0 -14 70 -13 70 1 0 6 4 5 8 -1 9
-14 64 -13 74 1 5 6 8 6 8 -1 0 -13 58 -13 79 0 6 4 17 4 24 -1 14 -11 47 -11
64 0 7 5 13 4 13 0 0 -5 13 -9 30 -9 16 -1 28 2 25 6 -4 7 17 7 35 0 15 -6 36
-4 47 4 8 5 18 5 25 -1 15 -11 48 -11 66 0 6 5 12 4 12 0 0 -5 13 -9 30 -9 16
-1 28 2 25 6 -4 7 17 7 35 0 15 -6 36 -4 47 4 8 5 18 5 25 -1 15 -11 48 -11
65 0 7 5 13 4 13 0 0 -5 11 -9 25 -9 14 0 25 5 25 11 0 6 3 6 8 -1 9 -14 64
-13 74 1 5 6 8 6 8 -1 0 -14 70 -13 70 1 0 6 4 5 8 -1 9 -14 64 -13 74 1 5 6
8 5 8 -2 0 -13 26 -13 47 0 6 4 14 3 17 -1 6 -11 46 -10 64 1 6 5 12 4 12 -1
0 -11 40 -10 59 2 10 6 12 5 7 -2 -8 -13 20 -12 41 1 7 5 13 4 13 0 0 -5 13
-9 30 -9 16 -1 28 2 25 6 -6 10 15 8 32 -3 6 -4 15 -3 18 3 4 7 12 7 18 2 14
-10 47 -10 64 1 7 5 13 4 13 -1 0 -11 40 -10 59 2 10 6 12 5 7 -2 -8 -13 20
-12 42 1 6 5 12 4 12 0 0 -5 13 -9 30 -9 16 -1 28 2 25 6 -3 5 3 7 12 5 10 -2
18 -4 18 -5 0 -1 10 -3 23 -4 12 -2 22 2 22 8 0 7 3 7 8 0 9 -14 64 -13 74 1
5 6 8 6 8 -1 0 -14 70 -13 70 1 0 6 4 5 8 -1 9 -14 64 -13 74 1 5 6 8 6 8 -1
0 -13 58 -13 79 0 6 4 17 4 24 -1 14 -11 47 -11 64 0 7 5 13 4 13 0 0 -5 13
-9 30 -9 16 -1 28 2 25 6 -4 7 17 7 35 0 15 -6 36 -4 48 4 7 5 17 5 25 -1 14
-11 47 -11 65 0 6 5 12 4 12 0 0 -5 13 -9 30 -9 16 -1 28 2 25 6 -4 7 17 7 35
0 15 -6 36 -4 48 4 7 5 17 5 25 -1 14 -11 47 -11 65 0 6 5 12 4 12 0 0 -5 11
-9 25 -9 14 0 25 5 25 11 0 6 3 6 8 -1 9 -14 64 -13 74 1 5 6 8 6 8 -1 0 -14
70 -13 70 1 0 6 4 5 8 -1 9 -14 64 -13 74 1 5 6 8 5 8 -2 0 -13 26 -13 47 0 6
4 14 3 17 -1 6 -11 46 -10 64 1 6 5 12 4 12 -1 0 -11 40 -10 59 2 10 6 12 5 7
-2 -8 -13 20 -12 42 1 6 5 12 4 12 0 0 -5 13 -9 30 -9 16 -1 28 2 25 6 -6 10
15 8 32 -3 6 -4 15 -3 18 3 5 8 12 7 22 -2 20 -16 16 -16 38 2 11 8 16 10 12
4 -3 -6 -1 -11 6 -11 7 0 13 9 13 19 0 10 -4 18 -9 18 -5 0 -5 6 2 13 8 10 7
17 -1 25 -9 9 -9 12 1 12 11 0 11 3 0 17 -12 14 -12 15 -1 9 11 -7 12 -4 3 13
-9 16 -9 21 0 21 9 0 9 3 0 14 -9 11 -9 16 0 21 8 6 7 10 -2 16 -11 7 -11 9 1
9 13 0 13 1 0 10 -12 8 -12 10 -1 10 11 0 11 3 1 15 -7 8 -8 15 -3 15 5 0 9 9
10 20 1 11 -2 18 -6 16 -10 -6 -8 25 3 42 4 7 2 12 -5 12 -8 0 -9 4 0 13 8 10
7 17 -1 25 -9 9 -9 12 1 12 10 0 11 3 3 13 -7 8 -7 18 -2 27 5 9 5 19 -1 26
-7 8 -6 15 2 19 8 6 7 10 -2 16 -11 7 -11 9 1 9 13 0 13 1 0 10 -12 8 -13 11
-1 19 9 6 10 10 2 16 -9 5 -9 10 0 21 9 11 8 14 -2 14 -12 0 -12 2 -1 9 15 9
15 20 0 38 -7 9 -7 13 2 13 9 0 9 4 -1 17 -12 14 -12 15 -1 9 11 -7 12 -4 3
13 -9 16 -9 21 0 21 9 0 9 3 0 14 -9 11 -9 16 0 21 8 6 7 10 -2 16 -11 7 -11
9 1 9 13 0 13 1 0 10 -12 8 -12 10 -1 10 11 0 11 3 1 15 -10 12 -10 15 0 15 9
0 9 4 -1 17 -10 11 -10 14 -1 9 15 -9 16 6 0 22 -9 9 -9 12 1 12 10 0 11 3 3
13 -7 8 -7 18 -2 27 5 9 5 19 -1 26 -7 8 -6 15 2 19 8 6 7 10 -2 16 -11 7 -11
9 1 9 13 0 13 1 0 10 -12 8 -12 10 -1 10 11 0 11 3 1 15 -10 12 -10 15 0 15 9
0 9 4 2 13 -7 8 -7 18 -2 27 5 9 5 19 -1 26 -7 8 -6 15 2 19 8 6 7 10 -2 16
-11 7 -11 9 1 9 13 0 13 1 0 10 -12 8 -13 11 -1 19 9 6 10 10 2 16 -9 5 -9 10
0 21 9 11 8 14 -2 14 -12 0 -12 2 -1 9 15 9 15 20 0 39 -7 8 -7 12 2 12 9 0 9
4 -1 17 -12 14 -12 15 -1 9 11 -7 12 -4 3 13 -9 16 -9 21 0 21 9 0 9 3 0 14
-9 11 -9 16 0 21 8 6 7 10 -2 16 -11 7 -11 9 1 9 13 0 13 1 0 10 -12 8 -12 10
-1 10 11 0 11 3 1 15 -10 12 -10 15 0 15 9 0 9 4 -1 17 -10 11 -10 14 -1 9 15
-9 16 6 0 22 -9 9 -9 12 1 12 10 0 11 3 3 13 -7 8 -7 18 -2 27 5 9 5 19 -1 26
-7 8 -6 15 2 19 8 6 7 10 -2 16 -11 7 -11 9 1 9 13 0 13 1 0 10 -12 8 -12 10
-1 10 11 0 11 3 1 15 -10 12 -10 15 0 15 9 0 9 4 2 13 -7 8 -7 18 -2 27 5 9 5
19 -1 26 -7 8 -6 15 2 19 8 6 7 10 -2 16 -11 7 -11 9 1 9 13 0 13 1 0 10 -12
8 -13 11 -1 19 9 6 10 10 2 16 -9 5 -9 10 0 21 9 11 8 14 -2 14 -12 0 -12 2
-1 9 15 9 15 20 0 38 -7 9 -7 13 2 13 9 0 9 4 -1 17 -12 14 -12 15 -1 9 11 -7
12 -4 3 13 -9 16 -9 21 0 21 9 0 9 3 0 14 -9 11 -9 16 0 21 8 6 7 10 -2 16
-11 7 -11 9 1 9 13 0 13 1 0 10 -12 8 -12 10 -1 10 11 0 11 3 1 15 -10 12 -10
15 0 15 9 0 9 4 -1 17 -10 11 -10 14 -1 9 15 -9 16 6 0 22 -9 9 -9 12 1 12 10
0 11 3 3 13 -7 8 -7 18 -2 27 5 9 5 19 -1 26 -7 8 -6 15 2 19 8 6 7 10 -2 16
-11 7 -11 9 1 9 13 0 13 1 0 10 -12 8 -12 10 -1 10 11 0 11 3 1 15 -10 12 -10
15 0 15 9 0 9 4 2 13 -7 8 -7 18 -2 27 5 9 5 19 -1 26 -7 8 -6 15 2 19 8 6 7
10 -2 16 -11 7 -11 9 1 9 13 0 13 1 0 10 -12 8 -13 11 -1 19 9 6 10 10 2 16
-9 5 -9 10 0 21 9 11 8 14 -2 14 -12 0 -12 2 -1 9 15 9 15 20 0 39 -7 8 -7 12
2 12 9 0 9 4 -1 17 -12 14 -12 15 -1 9 11 -7 12 -4 3 13 -9 16 -9 21 0 21 9 0
9 3 0 14 -9 11 -9 16 0 21 8 6 7 10 -2 16 -11 7 -11 9 1 9 13 0 13 1 0 10 -12
8 -12 10 -1 10 11 0 11 3 1 15 -10 12 -10 15 0 15 9 0 9 4 -1 17 -10 11 -10
14 -1 9 15 -9 16 6 0 22 -9 9 -9 12 1 12 10 0 11 3 3 13 -7 8 -7 18 -2 27 5 9
5 19 -1 26 -7 8 -6 15 2 19 8 6 7 10 -2 16 -11 7 -11 9 1 9 13 0 13 1 0 10
-12 8 -12 10 -1 10 11 0 11 3 1 15 -10 12 -10 15 0 15 9 0 9 4 2 13 -7 8 -7
18 -2 27 5 9 5 19 -1 26 -7 8 -6 15 2 19 8 6 7 10 -2 16 -11 7 -11 9 1 9 13 0
13 1 0 10 -12 8 -13 11 -1 19 9 6 10 10 2 16 -9 5 -9 10 0 21 9 11 8 14 -2 14
-12 0 -12 2 -1 9 15 9 15 20 0 38 -7 9 -7 13 2 13 9 0 9 4 -1 17 -12 14 -12
15 -1 9 11 -7 12 -4 3 13 -9 16 -9 21 0 21 9 0 9 3 0 14 -9 11 -9 16 0 21 8 6
7 10 -2 16 -11 7 -11 9 1 9 13 0 13 1 0 10 -12 8 -12 10 -1 10 11 0 11 3 1 15
-10 12 -10 15 0 15 9 0 9 4 -1 17 -10 11 -10 14 -1 9 15 -9 16 6 0 22 -9 9 -9
12 1 12 10 0 11 3 3 13 -7 8 -7 18 -2 27 5 9 5 19 -1 26 -7 8 -6 15 2 19 8 6
7 10 -2 16 -11 7 -11 9 1 9 13 0 13 1 0 10 -12 8 -12 10 -1 10 11 0 11 3 1 15
-10 12 -10 15 0 15 9 0 9 4 2 13 -7 8 -7 18 -2 27 5 9 5 19 -1 26 -7 8 -6 15
2 19 8 6 7 10 -2 16 -11 7 -11 9 1 9 13 0 13 1 0 10 -12 8 -13 11 -1 19 9 6
10 10 2 16 -9 5 -9 10 0 21 9 11 8 14 -2 14 -9 0 -10 3 -4 8 12 8 13 22 2 40
-5 7 -3 12 4 12 8 0 7 5 -2 17 -12 14 -12 15 -1 9 11 -7 12 -4 3 13 -9 16 -9
21 0 21 9 0 9 3 0 14 -9 11 -9 16 0 21 8 6 7 10 -2 16 -11 7 -11 9 1 9 13 0
13 1 0 10 -12 8 -12 10 -1 10 11 0 11 3 1 15 -10 12 -10 15 0 15 9 0 9 4 -1
17 -10 11 -10 14 -1 9 15 -9 16 6 0 22 -9 9 -9 12 1 12 10 0 11 3 3 13 -7 8
-7 18 -2 27 5 9 5 19 -1 26 -7 8 -6 15 2 19 8 6 7 10 -2 16 -11 7 -11 9 1 9
13 0 13 1 0 10 -12 8 -12 10 -1 10 11 0 11 3 1 15 -10 12 -10 15 0 15 9 0 9 4
2 13 -7 8 -7 18 -2 27 5 9 5 19 -1 26 -7 8 -6 15 2 19 8 6 7 10 -2 16 -11 7
-11 9 1 9 13 0 13 1 0 10 -12 8 -13 11 -1 19 9 6 10 10 2 16 -9 5 -9 10 0 21
9 11 8 14 -2 14 -9 0 -10 3 -4 8 12 8 13 22 2 40 -5 7 -3 12 4 12 8 0 7 5 -2
17 -12 15 -12 16 1 8 13 -8 13 -7 1 8 -10 13 -10 17 -1 17 9 0 10 3 1 13 -8
10 -7 17 1 25 9 9 9 12 -1 12 -10 0 -11 3 -2 13 7 10 7 17 0 24 -8 8 -7 13 3
19 20 13 82 13 90 0 5 -7 8 -7 8 0 0 15 200 15 200 0 0 -6 5 -4 10 4 9 13 11
13 20 0 5 -8 10 -10 10 -4 0 15 192 15 202 0 6 -8 8 -8 8 1 0 6 15 11 35 11
20 0 35 -5 35 -11 0 -7 5 -5 10 3 9 13 11 13 20 0 5 -8 10 -10 10 -4 0 15 200
15 200 0 0 -6 4 -5 9 3 5 8 16 11 25 8 8 -3 18 -2 22 4 3 6 10 6 17 1 7 -5 47
-8 90 -6 54 2 77 -1 77 -9 0 -7 4 -6 10 3 9 13 11 13 20 0 7 -11 10 -12 10 -2
0 16 47 14 69 -3 11 -7 13 -7 8 1 -5 8 19 11 84 10 50 -1 93 2 96 7 2 4 10 4
16 -1 15 -11 219 -8 237 3 8 5 11 4 7 -2 -4 -7 13 -10 48 -9 30 0 55 3 56 6 0
3 2 14 4 25 2 10 -2 26 -8 34 -7 9 -8 12 -1 8 8 -4 11 8 11 38 0 26 -5 45 -11
45 -8 0 -8 3 0 8 14 10 15 165 0 174 -8 6 -8 8 0 8 6 0 12 11 12 25 -1 15 -5
22 -12 18 -7 -4 -7 -2 1 7 6 7 9 19 6 28 -5 11 -3 13 7 7 9 -6 11 -4 5 6 -5 7
-8 58 -8 114 0 64 -3 103 -11 107 -8 6 -8 8 0 8 6 0 12 11 12 25 0 15 -5 22
-12 18 -7 -4 -7 -2 1 7 6 7 9 19 6 28 -5 11 -3 13 7 7 9 -6 11 -4 5 5 -5 7 -8
45 -8 84 0 40 -5 74 -11 78 -8 6 -8 8 0 8 6 0 11 14 12 30 0 21 -3 28 -11 24
-9 -5 -9 -4 0 6 9 10 9 18 1 34 -11 20 -10 20 7 6 15 -12 17 -12 10 -1 -4 8
-8 36 -8 63 1 29 -4 48 -11 48 -7 0 -8 3 -1 8 16 10 17 54 2 46 -9 -5 -9 -4 0
6 6 7 9 19 6 28 -5 11 -3 13 7 7 9 -6 11 -4 5 5 -5 7 -8 45 -8 84 0 40 -5 74
-11 78 -8 6 -8 8 0 8 6 0 11 14 12 30 0 21 -3 28 -11 23 -9 -5 -9 -3 0 8 14
17 13 81 -2 91 -6 5 -6 8 1 8 6 0 11 14 12 30 0 21 -3 28 -11 24 -9 -5 -9 -4
0 6 9 10 9 18 1 34 -11 20 -10 20 7 6 15 -12 17 -12 10 -1 -4 8 -8 36 -8 63 1
29 -4 48 -11 48 -7 0 -8 3 -1 8 16 10 17 54 2 46 -9 -5 -9 -4 0 6 6 7 9 19 6
28 -5 11 -3 13 7 7 9 -6 11 -4 5 5 -5 7 -8 45 -8 84 0 40 -5 74 -11 78 -8 6
-8 8 0 8 6 0 11 14 12 30 0 21 -3 28 -11 23 -9 -5 -9 -3 0 8 14 17 13 81 -2
91 -6 5 -6 8 1 8 6 0 11 14 12 30 0 21 -3 28 -11 24 -9 -5 -9 -4 0 6 9 10 9
18 1 34 -11 20 -10 20 7 6 15 -12 17 -12 10 -1 -4 8 -8 36 -8 63 1 29 -4 48
-11 48 -7 0 -8 3 -1 8 16 10 17 54 2 46 -9 -5 -9 -4 0 6 6 7 9 19 6 28 -5 11
-3 13 7 7 9 -6 11 -4 5 5 -5 7 -8 45 -8 84 0 40 -5 74 -11 78 -8 6 -8 8 0 8 6
0 11 14 12 30 0 21 -3 28 -11 23 -9 -5 -9 -3 0 8 14 17 13 81 -2 91 -6 5 -6 8
1 8 6 0 11 14 12 30 0 21 -3 28 -11 24 -9 -5 -9 -4 0 6 9 10 9 18 1 34 -11 20
-10 20 7 6 15 -12 17 -12 10 -1 -4 8 -8 36 -8 63 1 29 -4 48 -11 48 -7 0 -8 3
-1 8 16 10 17 54 2 46 -9 -5 -9 -4 0 6 6 7 9 19 6 28 -5 11 -3 13 7 7 9 -6 11
-4 5 5 -5 7 -8 45 -8 84 0 40 -5 74 -11 78 -8 6 -8 8 0 8 6 0 11 14 12 30 0
21 -3 28 -11 23 -7 -4 -6 0 2 10 7 9 10 17 6 17 -4 0 -1 8 6 17 12 14 12 15 0
9 -10 -7 -12 -3 -6 14 6 17 4 21 -6 14 -11 -6 -11 -4 0 10 13 15 13 19 0 27
-8 5 -9 9 -3 9 15 0 16 61 1 79 -8 9 -8 12 -1 8 8 -4 11 8 11 38 0 26 -5 45
-11 45 -8 0 -8 2 0 8 14 9 14 104 -1 114 -7 5 -7 8 1 8 6 0 11 14 12 30 0 21
-3 28 -11 24 -9 -5 -9 -4 0 6 9 10 9 18 1 34 -11 20 -10 20 7 6 15 -12 17 -12
10 -1 -4 8 -8 36 -8 63 1 29 -4 48 -11 48 -7 0 -8 3 -1 8 16 10 17 54 2 46 -9
-5 -9 -4 0 6 6 7 9 19 6 28 -5 11 -3 13 7 7 9 -6 11 -4 5 5 -5 7 -8 45 -8 84
0 40 -5 74 -11 78 -8 6 -8 8 0 8 6 0 11 14 12 30 0 21 -3 28 -11 23 -7 -4 -6
0 2 10 7 9 10 17 6 17 -4 0 -1 8 6 17 12 14 12 15 0 9 -10 -7 -12 -3 -6 14 6
17 4 21 -6 14 -11 -6 -11 -4 0 10 13 15 13 19 0 27 -8 5 -9 9 -3 9 15 0 16 61
1 79 -8 9 -8 12 -1 8 8 -4 11 8 11 38 0 26 -5 45 -11 45 -8 0 -8 2 0 8 6 4 10
25 9 47 0 22 3 48 8 58 6 14 1 20 -25 31 -25 11 -35 11 -40 3 -6 -9 -10 -8
-17 2 -5 8 -11 9 -15 3 -4 -7 -17 -7 -36 -2 -17 5 -30 6 -30 2 0 -8 -173 -7
-194 1 -8 3 -16 3 -19 0 -8 -7 -244 -6 -256 2 -6 3 -11 3 -11 -2 0 -9 -171 -9
-195 0 -8 4 -17 3 -19 -2 -5 -8 -70 -5 -93 3 -7 3 -13 2 -13 -2 0 -8 -172 -7
-194 1 -8 3 -16 3 -19 0 -8 -7 -244 -6 -256 2 -6 3 -11 3 -11 -2 0 -9 -171 -9
-194 0 -8 3 -17 3 -20 -1 -9 -8 -97 -2 -115 8 -10 5 -11 9 -2 15 9 5 9 10 0
21 -9 11 -9 14 1 14 9 0 10 3 1 13 -8 10 -7 17 1 25 9 9 9 12 0 12 -10 0 -10
5 -2 20 8 15 8 20 -2 20 -10 0 -10 2 1 9 9 6 10 10 2 16 -9 5 -9 10 0 21 9 11
8 14 -2 14 -12 0 -12 2 0 9 9 6 10 10 2 16 -9 5 -9 10 0 21 9 11 8 14 -2 14
-12 0 -12 2 -1 9 19 11 19 15 3 34 -10 13 -10 17 -1 17 9 0 9 4 -1 17 -12 15
-12 16 1 8 13 -8 13 -7 1 8 -10 13 -10 17 -1 17 9 0 10 3 1 13 -8 10 -7 17 1
25 9 9 9 12 0 12 -10 0 -10 5 -2 20 8 15 8 20 -2 20 -10 0 -10 2 1 9 9 6 10
10 2 16 -8 4 -9 11 -2 18 12 15 12 29 -1 45 -7 8 -7 12 2 12 9 0 9 4 -1 17
-12 14 -12 15 -1 9 11 -7 12 -4 3 13 -9 16 -9 21 0 21 9 0 9 3 0 14 -9 11 -9
16 0 21 8 6 7 10 -2 16 -11 7 -11 9 1 9 13 0 13 1 0 10 -12 8 -12 10 -1 10 11
0 11 3 1 15 -7 8 -8 15 -3 15 5 0 9 9 10 20 1 11 -2 18 -6 16 -10 -6 -8 25 3
42 4 7 2 12 -5 12 -8 0 -9 4 0 13 8 10 7 17 -1 25 -9 9 -9 12 1 12 10 0 11 3
3 13 -7 8 -7 18 -2 27 5 9 5 19 -1 26 -7 8 -6 15 2 19 8 6 7 10 -2 16 -11 7
-11 9 1 9 13 0 13 1 0 10 -12 8 -13 11 -1 19 9 6 10 10 2 16 -9 5 -9 10 0 21
9 11 8 14 -2 14 -12 0 -12 2 -1 9 19 11 19 15 3 34 -10 13 -10 17 -1 17 9 0 9
4 -1 17 -12 14 -12 15 -1 9 11 -7 12 -4 3 13 -9 16 -9 21 0 21 9 0 9 3 0 14
-9 11 -9 16 0 21 8 6 7 10 -2 16 -11 7 -11 9 1 9 13 0 13 1 0 10 -12 8 -12 10
-1 10 11 0 11 3 1 15 -10 12 -10 15 0 15 9 0 9 4 -1 17 -10 11 -10 14 -1 9 15
-9 16 6 0 22 -9 9 -9 12 2 12 11 0 11 3 2 12 -7 7 -8 17 -2 29 7 12 6 20 0 24
-8 5 -7 11 1 21 9 11 8 14 -2 14 -11 0 -11 2 1 10 12 8 12 10 1 10 -10 0 -11
3 -2 13 8 10 7 17 -1 25 -9 9 -9 12 1 12 11 0 11 3 0 17 -12 14 -12 15 -1 9
11 -7 12 -4 3 13 -9 16 -9 21 0 21 9 0 9 3 0 14 -9 11 -9 16 0 21 8 6 7 10 -2
16 -11 7 -11 9 1 9 13 0 13 1 0 10 -12 8 -12 10 -1 10 11 0 11 3 1 15 -7 8 -8
15 -3 15 5 0 9 9 10 20 1 11 -2 18 -6 16 -10 -6 -8 25 3 42 4 6 3 12 -2 12 -5
0 -9 7 -9 15 0 8 5 15 10 15 5 0 4 6 -2 14 -9 11 -9 16 0 21 8 6 7 10 -2 16
-9 6 -10 9 -2 9 12 0 12 17 0 38 -5 7 -3 12 4 12 8 0 7 5 -2 17 -12 14 -12 15
-1 9 11 -7 12 -4 3 13 -9 16 -9 21 0 21 9 0 9 3 0 14 -9 11 -9 16 0 21 8 6 7
10 -2 16 -11 7 -11 9 1 9 13 0 13 1 0 10 -12 8 -12 10 -1 10 11 0 11 3 1 15
-10 12 -10 15 0 15 10 0 10 3 1 14 -9 11 -9 16 0 21 8 6 7 10 -2 16 -12 7 -12
9 0 9 10 0 11 3 2 13 -8 10 -7 17 2 26 9 9 9 14 -3 21 -11 7 -11 10 -2 10 8 0
10 5 6 12 -10 16 -13 68 -3 62 15 -9 15 32 0 50 -9 11 -11 16 -4 13 6 -4 14
-3 18 3 3 5 2 10 -4 10 -6 0 -6 11 -1 30 5 18 5 30 -1 30 -5 0 -9 5 -9 11 0 6
7 8 16 5 13 -5 14 -3 6 6 -8 10 -10 113 -2 113 1 0 3 18 5 40 1 22 3 46 4 53
1 7 6 10 13 6 7 -5 8 -3 2 7 -13 21 -14 38 -2 45 6 4 5 10 -3 15 -10 6 -10 9
-2 9 7 0 10 7 7 15 -4 8 -2 15 2 15 5 0 10 15 11 33 1 17 4 46 8 62 4 17 7 42
8 57 1 14 5 24 9 21 5 -2 8 8 8 22 0 14 6 38 14 53 7 15 12 35 11 45 -2 9 1
17 6 17 5 0 8 3 8 8 -4 21 2 43 10 38 5 -3 7 8 6 24 -1 16 1 28 5 27 5 -1 8 1
9 6 0 4 8 21 16 37 9 17 12 30 8 30 -4 0 1 6 12 13 10 8 15 19 11 25 -4 7 -2
12 3 12 6 0 11 6 11 14 0 7 6 19 14 26 8 6 12 19 9 27 -4 10 -2 14 5 9 6 -4
16 8 23 28 7 19 16 33 21 30 4 -3 8 2 8 11 0 10 5 13 13 9 6 -4 9 -4 5 1 -4 4
1 20 11 34 30 41 131 146 131 136 0 -6 8 2 18 18 10 15 22 24 25 20 4 -3 7 -1
7 5 0 7 7 12 16 12 8 0 13 4 10 9 -3 5 1 12 10 15 10 4 13 2 8 -7 -4 -6 3 -2
15 11 12 12 27 19 33 16 6 -4 8 -3 4 4 -6 10 30 28 47 24 4 -1 7 4 7 11 0 7
10 13 22 14 11 1 24 7 28 14 4 6 13 8 19 5 6 -4 11 -2 11 5 0 7 3 9 7 6 3 -4
15 0 25 10 14 13 18 13 18 2 1 -11 3 -11 13 1 7 9 25 15 41 15 15 -1 30 5 33
11 3 7 11 10 18 7 8 -2 20 -1 26 3 12 7 61 14 117 17 12 0 22 6 22 11 0 6 5 5
12 -2 8 -8 15 -9 25 -1 10 9 13 8 13 -2 1 -10 5 -9 14 4 9 11 17 14 20 8 4 -6
15 -7 30 -1 15 5 27 5 35 -3 8 -8 11 -7 11 3 0 9 5 8 16 -6 8 -10 13 -13 9 -7
-4 9 5 12 35 11 22 -1 43 -5 46 -9 2 -5 16 -4 29 1 17 7 25 6 25 -1 0 -8 4 -8
14 0 11 9 16 9 21 1 4 -7 18 -10 31 -7 13 2 24 0 24 -4 0 -5 3 -8 8 -8 4 1 9
1 12 0 3 -2 25 -4 49 -6 25 -3 47 -8 50 -13 3 -5 14 -8 24 -6 9 1 17 -3 17 -9
0 -7 5 -5 10 3 6 9 10 10 10 3 0 -6 15 -15 32 -19 18 -3 43 -13 56 -22 12 -8
25 -12 29 -9 3 4 13 -1 22 -11 9 -9 21 -18 26 -19 31 -5 41 -9 52 -23 7 -8 13
-11 13 -7 0 4 10 -1 22 -13 12 -11 28 -20 35 -20 7 0 13 -4 13 -10 0 -5 7 -10
16 -10 8 0 12 -4 9 -10 -3 -5 0 -10 8 -10 8 0 34 -18 57 -40 23 -22 44 -40 46
-40 7 0 53 -50 46 -51 -4 0 1 -4 11 -8 10 -4 18 -10 18 -14 0 -3 18 -25 39
-49 22 -23 43 -50 46 -60 3 -10 10 -18 15 -18 5 0 9 -7 9 -16 0 -8 4 -13 9
-10 5 3 14 -8 21 -24 7 -17 17 -30 22 -30 5 0 7 -4 4 -9 -3 -5 1 -14 9 -21 8
-7 15 -19 15 -26 0 -8 5 -14 10 -14 6 0 10 -7 10 -16 0 -8 7 -22 15 -31 8 -8
13 -19 10 -24 -4 -5 -2 -9 2 -9 9 0 37 -59 34 -72 0 -5 4 -8 10 -8 6 0 9 -7 5
-15 -3 -9 0 -15 10 -15 11 0 15 -6 11 -20 -3 -11 -1 -20 5 -20 5 0 6 -4 3 -10
-3 -5 -2 -10 3 -10 6 0 13 -7 16 -16 3 -8 2 -12 -4 -9 -5 3 0 -12 12 -34 15
-29 25 -38 33 -31 7 5 15 7 19 3 4 -4 9 3 13 15 3 12 9 20 13 17 4 -2 15 4 25
15 10 11 21 17 26 15 4 -3 14 4 22 15 7 11 17 17 20 13 4 -3 7 1 7 11 0 9 4
15 8 12 7 -4 24 8 80 54 6 6 12 8 12 5 0 -3 11 6 24 20 14 15 27 26 30 26 20
-3 26 0 21 9 -3 6 1 10 9 10 8 0 20 8 25 18 6 9 11 13 11 9 0 -8 14 2 53 39
13 11 29 18 36 16 8 -3 11 0 7 6 -3 6 3 13 14 17 11 3 20 11 20 16 0 6 5 7 10
4 6 -3 10 -2 10 3 0 6 20 23 44 38 25 16 42 32 40 36 -3 5 -2 7 3 6 16 -4 53
14 48 23 -4 5 -1 9 6 9 6 0 18 8 26 18 9 11 12 12 8 2 -4 -8 3 -4 14 10 11 14
21 22 21 18 0 -5 8 0 18 10 10 9 29 24 42 32 13 8 32 23 42 33 10 9 18 14 18
10 0 -3 8 4 19 15 10 12 21 19 25 15 3 -3 6 -1 6 5 0 7 6 12 14 12 8 0 21 9
29 20 8 11 17 17 20 13 4 -3 7 -1 7 6 0 7 4 10 9 6 5 -3 12 4 16 15 4 11 10
18 14 16 4 -3 23 8 42 24 19 16 40 29 47 30 7 0 10 5 6 12 -5 8 -2 9 10 5 9
-4 15 -3 12 2 -3 5 2 15 11 22 14 12 16 12 9 -1 -4 -8 1 -5 10 8 9 12 22 22
28 22 7 0 23 11 36 25 13 14 26 23 28 20 3 -3 15 6 28 20 15 16 24 20 27 12 3
-7 6 -4 6 6 1 15 12 22 34 18 5 -1 6 3 2 9 -3 5 2 13 12 17 10 4 24 15 31 25
7 10 20 18 28 18 20 0 45 25 36 35 -4 5 -2 5 4 2 7 -4 24 6 40 21 15 15 24 20
20 12 -4 -9 -2 -8 7 3 8 9 17 17 20 17 3 0 18 11 33 25 14 13 30 22 35 20 4
-3 10 4 14 15 4 11 10 18 15 15 5 -3 17 3 27 15 10 11 21 20 25 20 8 0 36 21
64 48 8 7 14 10 14 5 0 -4 5 0 11 10 5 9 14 17 19 17 6 0 19 9 30 20 12 12 25
18 30 15 5 -3 11 4 15 15 4 11 10 18 15 15 5 -3 14 4 20 15 6 11 15 20 21 20
13 0 87 50 74 50 -6 1 4 7 20 14 17 7 42 25 58 39 15 14 27 23 27 19 0 -4 7 2
16 13 8 11 17 19 20 17 4 -2 20 9 55 41 10 9 19 14 19 10 0 -3 9 4 20 17 11
13 20 20 20 16 0 -4 7 -1 15 6 34 31 43 36 49 31 3 -4 6 -2 6 4 0 6 19 23 42
38 49 33 64 44 85 67 9 9 20 15 25 12 4 -3 8 0 8 5 0 6 6 11 14 11 8 0 16 3
18 8 4 10 85 72 94 72 3 0 21 12 39 28 61 52 75 62 85 62 6 0 10 5 10 11 0 5
4 8 9 4 5 -3 12 4 16 15 4 11 10 18 15 15 5 -3 20 6 34 20 14 14 26 23 26 20
0 -3 10 3 22 15 12 11 25 20 28 20 4 0 19 11 34 25 15 14 32 23 37 20 5 -4 9
1 9 9 0 8 9 18 20 21 11 3 20 11 20 16 0 6 5 7 10 4 6 -3 10 -2 10 3 0 5 12
15 28 23 15 7 34 20 43 29 40 38 68 58 73 53 3 -4 6 -1 6 6 0 7 5 9 10 6 6 -3
10 1 10 9 0 8 5 18 12 22 7 4 8 3 4 -5 -5 -7 12 3 37 21 24 18 42 37 39 42 -3
5 1 6 9 4 8 -3 22 4 32 15 9 11 17 16 17 12 0 -4 13 6 29 23 16 16 32 27 36
24 4 -4 11 1 16 11 6 9 17 17 25 17 8 0 12 5 9 10 -3 6 0 10 8 10 7 0 23 9 35
20 12 11 24 20 28 20 4 0 15 10 25 22 11 11 19 18 19 14 0 -4 6 -1 14 6 27 25
75 59 81 58 4 -1 15 9 26 21 10 12 19 19 19 15 0 -4 12 5 27 19 15 14 34 25
41 25 7 0 11 4 7 9 -3 5 5 13 17 17 13 4 31 16 41 27 9 11 17 16 17 11 0 -5 7
2 16 14 8 12 19 20 23 17 5 -2 17 6 27 20 10 13 21 22 24 20 4 -2 16 3 26 13
34 30 83 62 94 62 6 0 9 4 6 9 -5 8 7 17 27 19 4 1 18 12 30 25 12 13 30 26
40 30 9 3 17 11 17 17 0 6 5 8 10 5 6 -3 10 -1 10 5 0 6 4 9 9 6 5 -4 11 -2
13 3 1 6 26 27 53 47 28 20 41 33 30 30 -15 -6 -17 -4 -9 4 9 9 5 19 -17 40
-16 15 -29 30 -29 34 0 14 -28 35 -35 28 -5 -4 -5 -2 -2 4 4 6 -2 19 -13 29
-11 10 -17 22 -14 26 3 5 -3 9 -12 9 -10 0 -15 3 -11 6 7 7 -35 50 -45 47 -5
-2 -8 4 -8 12 0 9 -10 26 -22 39 -40 41 -63 71 -60 79 1 4 -6 7 -15 7 -9 0
-13 3 -10 7 4 3 -2 13 -13 20 -11 8 -17 19 -14 25 5 8 1 9 -10 5 -9 -4 -15 -3
-12 1 3 5 -18 32 -45 60 -28 29 -48 52 -45 52 2 0 -10 15 -27 32 -18 18 -35
31 -39 30 -5 -1 -8 2 -8 7 0 4 -13 22 -30 39 -16 18 -30 37 -30 42 0 6 -4 9
-9 5 -5 -3 -12 4 -16 15 -3 11 -12 20 -20 20 -8 0 -17 9 -20 20 -3 11 -13 20
-21 20 -8 0 -14 3 -14 8 0 13 -47 62 -54 55 -3 -3 -6 1 -6 10 0 8 -9 19 -20
22 -11 4 -18 11 -15 16 4 5 -1 9 -9 9 -8 0 -18 9 -21 20 -3 11 -11 20 -17 20
-5 0 -19 11 -30 25 -11 14 -24 23 -29 20 -5 -4 -9 4 -9 17 0 18 -2 20 -10 8
-6 -9 -10 -10 -10 -3 0 16 -56 73 -64 66 -3 -4 -6 2 -6 12 0 10 -3 15 -6 12
-4 -4 -14 1 -23 11 -9 10 -33 31 -53 46 -21 16 -35 32 -32 37 3 5 -1 9 -8 9
-7 0 -33 19 -58 41 -92 84 -104 94 -112 92 -4 -2 -8 0 -8 5 0 4 -31 32 -70 62
-38 30 -70 58 -70 63 0 4 -4 5 -10 2 -5 -3 -10 -2 -10 4 0 5 -9 13 -20 16 -11
3 -20 14 -21 23 0 11 -2 13 -6 4 -4 -10 -9 -8 -21 5 -23 25 -96 79 -99 73 -2
-3 -10 5 -18 18 -9 12 -21 20 -26 17 -5 -4 -9 -1 -9 4 0 6 -7 11 -16 11 -8 0
-12 5 -9 10 3 6 0 10 -8 10 -7 0 -23 9 -35 20 -12 11 -26 20 -32 20 -5 0 -10
5 -10 10 0 6 -6 10 -14 10 -7 0 -20 7 -27 16 -7 9 -24 20 -37 25 -14 5 -20 14
-16 21 5 7 2 9 -7 6 -9 -3 -26 3 -40 13 -13 10 -30 19 -37 19 -7 0 -10 5 -7
10 3 6 -3 10 -14 10 -12 0 -21 5 -21 10 0 6 -7 10 -15 10 -8 0 -15 5 -15 10 0
6 -6 10 -14 10 -8 0 -16 4 -18 9 -2 5 -10 11 -18 13 -8 2 -17 6 -20 9 -3 4
-32 21 -65 40 -33 18 -62 35 -65 38 -3 4 -14 13 -24 21 -18 13 -19 13 -11 0 6
-11 3 -10 -12 3 -11 9 -23 14 -26 10 -4 -3 -7 -1 -7 5 0 7 -6 12 -14 12 -8 0
-16 5 -18 10 -2 6 -13 12 -25 13 -12 0 -19 5 -17 9 3 4 -2 8 -10 8 -9 0 -16 5
-16 11 0 5 -4 7 -10 4 -5 -3 -10 -2 -10 4 0 6 -7 8 -15 5 -8 -4 -15 -1 -15 5
0 6 -7 11 -15 11 -8 0 -15 5 -15 11 0 5 -4 7 -10 4 -5 -3 -10 -1 -10 4 0 6 -3
10 -7 9 -14 -4 -53 13 -53 23 0 5 -3 8 -7 8 -20 -3 -34 2 -29 10 3 5 0 9 -7 8
-34 -1 -48 4 -41 15 4 6 3 8 -3 5 -5 -3 -26 3 -46 13 -21 11 -37 17 -37 13 0
-5 -4 -2 -8 5 -5 7 -19 14 -31 17 -13 2 -29 9 -35 15 -7 5 -16 7 -19 3 -4 -3
-7 -1 -7 5 0 7 -3 11 -7 10 -5 -1 -21 5 -38 12 -16 7 -33 13 -37 12 -5 -1 -8
2 -8 6 0 5 -6 9 -12 9 -25 1 -43 8 -56 23 -8 8 -11 9 -7 3 4 -9 1 -11 -9 -7
-9 3 -16 10 -16 15 0 5 -11 9 -24 9 -35 0 -57 10 -49 23 4 6 1 7 -7 2 -7 -4
-16 -2 -21 6 -7 12 -9 11 -9 -1 0 -12 -2 -12 -9 -2 -5 8 -20 15 -35 15 -14 1
-28 8 -31 14 -2 7 -11 10 -20 7 -8 -3 -15 -2 -15 3 0 5 -12 10 -27 11 -15 1
-29 5 -32 10 -3 4 -17 9 -31 11 -14 1 -27 6 -30 10 -3 3 -16 8 -30 9 -14 2
-31 9 -38 14 -7 6 -15 8 -19 4 -3 -3 -17 1 -31 10 -13 8 -26 13 -30 10 -3 -3
-15 0 -26 7 -12 7 -35 13 -53 12 -17 0 -31 2 -31 5 1 18 -4 21 -19 9 -11 -10
-14 -10 -9 -1 5 8 -2 12 -23 12 -17 0 -31 5 -31 10 0 6 -5 10 -11 10 -5 0 -7
-6 -3 -12 6 -9 3 -9 -9 1 -9 7 -24 11 -32 7 -9 -3 -13 -2 -10 4 3 6 0 11 -7
12 -22 2 -32 4 -73 13 -22 4 -47 9 -55 11 -33 6 -46 10 -59 18 -11 7 -12 6 -6
-5 7 -12 6 -12 -9 0 -10 8 -36 16 -59 18 -23 2 -48 4 -54 5 -7 1 -13 4 -13 8
0 3 -18 6 -40 5 -21 -1 -37 2 -34 7 3 4 -4 8 -16 8 -14 0 -19 -4 -15 -12 4 -7
1 -6 -7 2 -7 9 -20 15 -28 15 -8 -1 -23 3 -34 8 -13 7 -16 6 -11 -3 6 -9 2 -9
-15 0 -12 7 -33 10 -47 7 -15 -3 -27 1 -30 9 -3 8 -10 11 -17 7 -17 -11 -37
-12 -30 -2 3 5 -5 8 -18 8 -13 -1 -40 2 -62 6 -30 5 -37 4 -30 -7 5 -8 1 -8
-12 2 -10 9 -36 16 -56 15 -21 0 -38 2 -38 5 0 3 -21 5 -47 4 -27 0 -54 4 -60
9 -9 6 -13 5 -13 -4 0 -9 -3 -10 -8 -4 -4 6 -24 12 -46 13 -30 3 -37 1 -30
-10 6 -10 5 -11 -7 -1 -9 7 -37 14 -62 15 -26 2 -47 8 -47 13 0 6 -4 4 -9 -4
-6 -10 -13 -10 -28 -3 -11 6 -25 7 -33 2 -9 -5 -19 -5 -27 1 -8 7 -19 7 -34
-1 -12 -7 -19 -8 -15 -2 3 6 -26 10 -79 10 -63 1 -84 -2 -78 -11 5 -8 2 -8 -9
1 -19 15 -406 16 -424 1 -8 -7 -14 -6 -19 1 -3 5 -11 10 -16 10 -6 0 -8 -4 -5
-8 2 -4 -4 -8 -14 -8 -10 0 -17 4 -14 8 2 4 -5 6 -16 5 -11 -1 -20 -5 -20 -9
0 -8 -34 -3 -52 8 -8 5 -9 2 -5 -10z"/>
<path d="M12910 16751 c0 -3 -26 -5 -57 -4 -32 1 -63 -3 -70 -8 -7 -7 -14 -6
-18 1 -3 6 -12 7 -18 3 -7 -4 -21 -8 -32 -9 -11 0 -31 -4 -44 -8 -18 -6 -22
-5 -15 5 6 11 4 11 -10 0 -9 -8 -29 -16 -43 -17 -51 -6 -123 -28 -123 -38 0
-6 -4 -5 -9 2 -7 11 -11 11 -23 -2 -9 -8 -18 -13 -20 -10 -3 2 -18 -1 -34 -7
-16 -7 -31 -13 -34 -14 -3 0 -15 -6 -27 -13 -13 -7 -23 -10 -23 -6 0 3 -6 1
-13 -5 -8 -6 -17 -8 -20 -4 -4 3 -7 1 -7 -5 0 -7 -6 -12 -12 -12 -24 -1 -108
-47 -100 -55 4 -5 -1 -5 -11 -2 -11 4 -20 1 -23 -8 -4 -8 -10 -12 -15 -10 -4
3 -17 -3 -29 -15 -11 -11 -20 -18 -20 -15 0 5 -42 -23 -98 -65 -19 -14 -36
-25 -40 -25 -3 0 -20 -13 -37 -30 -75 -70 -140 -125 -149 -125 -5 0 -7 -2 -4
-5 3 -3 -16 -27 -41 -53 -69 -71 -120 -132 -113 -132 4 0 2 -4 -3 -8 -18 -13
-75 -90 -75 -101 0 -7 -7 -14 -15 -17 -8 -4 -15 -15 -15 -25 0 -10 -4 -19 -9
-19 -5 0 -14 -13 -21 -30 -7 -16 -16 -30 -21 -30 -5 0 -8 -3 -7 -7 1 -5 -12
-36 -30 -71 -17 -34 -33 -70 -34 -80 -2 -9 -7 -20 -11 -23 -5 -3 -10 -12 -11
-20 -2 -8 -8 -27 -14 -42 -7 -15 -15 -40 -18 -55 -4 -15 -10 -31 -14 -37 -4
-5 -6 -18 -5 -27 2 -10 -1 -18 -6 -18 -6 0 -8 -4 -5 -8 3 -5 -1 -21 -9 -36 -8
-14 -10 -24 -5 -21 6 4 10 1 10 -4 0 -6 -4 -11 -9 -11 -5 0 -9 -10 -8 -22 1
-30 -6 -51 -18 -60 -6 -5 -5 -8 3 -8 9 0 10 -5 4 -17 -5 -10 -8 -28 -7 -40 1
-13 -3 -23 -9 -23 -6 0 -4 -5 4 -10 13 -9 13 -10 0 -10 -13 0 -13 -1 0 -10 8
-5 10 -10 5 -10 -13 0 -13 -3 -14 -175 -2 -177 1 -235 12 -235 5 0 4 -7 -3
-15 -7 -8 -8 -15 -3 -15 6 0 9 -12 9 -27 -1 -16 3 -42 10 -59 7 -20 8 -37 2
-47 -5 -11 -5 -17 0 -17 6 0 13 -7 16 -16 4 -10 2 -13 -7 -8 -8 6 -8 3 1 -9 8
-9 12 -22 10 -29 -3 -7 1 -19 9 -26 7 -8 11 -18 7 -23 -3 -6 0 -16 6 -24 7 -8
9 -15 5 -15 -4 0 -2 -6 4 -13 6 -8 8 -17 4 -20 -3 -4 -2 -7 3 -7 5 0 11 -9 12
-20 4 -43 6 -50 14 -50 4 0 8 -8 8 -18 0 -10 5 -23 12 -30 7 -7 9 -12 5 -12
-3 0 12 -34 33 -75 21 -41 37 -75 34 -75 -3 0 4 -10 16 -22 11 -12 20 -28 20
-35 0 -7 3 -13 8 -13 4 0 13 -13 20 -29 11 -25 22 -41 62 -88 5 -7 10 -16 10
-22 0 -5 7 -12 16 -15 9 -4 15 -9 12 -11 -5 -6 31 -48 132 -153 35 -37 63 -70
62 -74 -1 -5 5 -8 13 -8 7 0 19 -8 24 -17 6 -10 11 -15 11 -11 0 4 16 -8 36
-27 49 -48 90 -76 98 -67 4 4 6 2 4 -3 -2 -6 1 -11 6 -12 5 -1 12 -5 15 -10 8
-13 109 -78 144 -94 15 -7 27 -16 27 -22 0 -5 7 -7 15 -3 8 3 15 1 15 -4 0 -6
7 -10 15 -10 8 0 15 -4 15 -10 0 -5 9 -10 19 -10 11 0 23 -5 26 -11 4 -6 13
-8 20 -5 7 2 16 -2 19 -10 3 -8 9 -13 13 -13 8 2 24 -3 71 -22 13 -5 28 -7 33
-4 5 4 9 2 9 -3 0 -6 24 -16 53 -22 28 -7 57 -15 62 -19 6 -3 21 -7 35 -8 14
-2 36 -6 50 -10 14 -3 29 -5 33 -5 4 1 17 -3 29 -9 15 -8 18 -8 14 0 -4 6 -3
11 2 11 6 0 13 -7 16 -16 5 -12 10 -14 20 -5 7 6 16 8 19 4 4 -3 36 -7 72 -8
38 -1 72 -8 82 -16 9 -8 14 -9 10 -2 -4 6 -3 14 2 18 5 3 14 -3 20 -12 6 -10
11 -12 11 -6 0 9 23 13 78 13 143 0 212 5 212 15 0 6 5 3 10 -5 7 -11 10 -11
10 -2 0 7 4 11 9 8 5 -4 12 0 14 6 4 9 6 9 6 1 1 -8 10 -9 35 -2 19 5 40 8 48
7 7 -2 12 2 11 7 -1 6 16 9 38 9 21 -1 39 1 39 5 0 4 12 8 26 9 15 1 32 6 39
12 6 5 15 7 18 4 3 -3 12 -2 19 2 7 5 18 9 23 10 28 5 41 10 46 17 3 5 12 9
20 10 8 2 20 6 27 10 6 5 17 5 22 2 6 -3 10 -1 10 4 0 6 9 11 19 11 11 0 21 3
23 8 3 8 116 63 121 59 2 -1 11 5 20 13 36 33 47 40 61 40 8 0 16 3 18 8 2 4
23 21 48 37 24 17 51 36 60 43 8 7 27 23 42 35 62 50 132 114 162 146 17 19
50 54 74 79 23 24 42 46 42 48 0 5 30 42 57 71 13 13 23 27 24 31 4 15 73 117
81 120 4 2 6 8 2 13 -3 5 0 9 7 9 7 0 9 3 6 6 -4 4 2 19 12 33 21 31 65 122
66 136 0 6 7 16 15 23 13 12 13 13 0 6 -13 -7 -13 -5 -1 9 7 9 10 17 5 17 -5
0 -3 4 4 9 8 5 15 20 15 35 1 14 5 26 8 26 8 0 23 49 22 73 0 9 4 17 9 17 6 0
8 7 5 15 -4 8 -1 17 4 21 6 3 9 17 6 30 -2 13 0 24 5 24 6 0 8 6 5 14 -3 8 -3
17 1 20 8 9 11 25 28 171 8 73 9 343 0 405 -3 25 -7 59 -9 75 -1 17 -6 36 -10
43 -5 7 -3 12 4 12 8 0 8 4 2 13 -6 6 -9 22 -8 34 1 12 -2 20 -7 17 -7 -4 -13
43 -9 69 0 4 -3 7 -7 7 -5 0 -9 7 -9 15 0 8 -5 34 -13 57 -15 51 -19 67 -20
73 -1 2 -7 17 -15 32 -8 14 -12 30 -9 35 3 4 0 8 -5 8 -6 0 -11 5 -11 12 0 16
-92 202 -102 206 -4 2 -8 10 -8 18 0 8 -4 14 -10 14 -5 0 -10 7 -10 15 0 8 -4
15 -10 15 -5 0 -10 6 -10 13 0 7 -9 23 -20 35 -11 12 -20 25 -20 29 0 5 -9 15
-20 23 -11 8 -20 19 -20 25 0 6 -18 28 -40 50 -21 22 -39 46 -40 53 0 7 -4 10
-10 7 -5 -3 -10 -2 -10 4 0 9 -108 121 -117 121 -2 0 -17 14 -33 30 -16 17
-34 30 -40 30 -5 0 -10 7 -10 16 0 8 -4 12 -10 9 -5 -3 -10 -2 -10 3 0 5 -11
15 -25 22 -13 7 -22 17 -19 22 3 5 2 7 -3 6 -14 -5 -102 56 -96 67 4 5 3 7 -2
3 -11 -10 -86 33 -78 45 3 6 1 7 -5 3 -11 -6 -87 28 -97 45 -3 4 -12 6 -20 2
-8 -3 -15 0 -15 6 0 6 -7 11 -15 11 -8 0 -25 5 -38 12 -47 24 -57 28 -72 28
-8 0 -15 4 -15 9 0 5 -15 11 -32 14 -18 3 -44 8 -58 12 -14 4 -35 7 -47 8 -12
1 -19 5 -17 9 3 4 -6 9 -20 9 -14 1 -34 2 -43 2 -10 1 -20 4 -23 8 -3 4 -25 8
-50 10 -25 1 -51 7 -59 13 -12 9 -13 8 -6 -3 6 -11 5 -12 -6 -5 -16 10 -40 12
-211 17 -71 3 -128 2 -128 -2z"/>
<path d="M20758 16114 c-4 -3 -44 -8 -90 -11 -114 -6 -118 -7 -118 -13 0 -3
-17 -5 -38 -4 -20 0 -41 -2 -47 -5 -5 -3 -17 -7 -25 -8 -33 -5 -65 -12 -65
-13 0 -1 -11 -4 -60 -14 -5 -1 -16 -5 -22 -9 -7 -5 -17 -6 -22 -2 -5 3 -16 -1
-24 -9 -8 -8 -17 -13 -20 -10 -3 4 -12 2 -19 -2 -7 -5 -17 -9 -23 -9 -19 0
-110 -39 -117 -49 -4 -6 -8 -7 -8 -2 0 5 -10 1 -22 -10 -12 -10 -18 -13 -13
-5 5 8 -3 6 -20 -5 -16 -10 -34 -19 -41 -20 -8 -1 -25 -12 -40 -23 -15 -12
-33 -21 -40 -21 -8 0 -14 -4 -14 -10 0 -5 -7 -10 -15 -10 -8 0 -15 -4 -15 -10
0 -5 -6 -10 -14 -10 -8 0 -22 -8 -32 -17 -10 -10 -20 -18 -23 -19 -19 -3 -40
-17 -36 -24 3 -5 -4 -11 -15 -15 -11 -4 -37 -22 -58 -41 -20 -19 -45 -37 -55
-40 -9 -3 -15 -9 -12 -14 3 -5 -4 -11 -15 -15 -11 -4 -18 -10 -15 -15 3 -4 -5
-10 -16 -13 -12 -3 -18 -10 -14 -16 3 -6 2 -11 -2 -11 -5 0 -31 -20 -57 -45
-27 -25 -46 -45 -43 -45 6 0 -39 -53 -94 -111 -21 -21 -34 -41 -31 -44 4 -4
-1 -11 -11 -16 -9 -6 -17 -17 -17 -24 0 -8 -4 -15 -9 -15 -11 0 -44 -50 -44
-67 0 -7 -4 -10 -8 -8 -4 3 -13 -8 -21 -25 -7 -16 -16 -30 -20 -30 -5 0 -8 -7
-8 -15 0 -8 -4 -15 -9 -15 -5 0 -11 -8 -14 -17 -6 -19 -48 -94 -57 -103 -11
-10 -74 -145 -72 -152 1 -5 -2 -8 -8 -8 -5 0 -10 -9 -10 -20 0 -11 -4 -20 -10
-20 -5 0 -10 -6 -10 -12 -1 -7 -9 -31 -20 -53 -10 -22 -16 -44 -13 -49 4 -5 0
-7 -8 -4 -9 4 -15 -1 -17 -13 -1 -11 -3 -28 -4 -39 -1 -11 -6 -20 -10 -20 -4
0 -8 -9 -8 -20 0 -11 -5 -20 -11 -20 -5 0 -7 -4 -4 -10 3 -5 2 -10 -4 -10 -6
0 -8 -7 -5 -15 4 -8 1 -15 -6 -15 -7 0 -10 -7 -6 -15 3 -8 1 -15 -4 -15 -6 0
-10 -9 -10 -20 0 -11 -5 -20 -11 -20 -5 0 -7 -4 -4 -10 3 -5 1 -10 -5 -10 -6
0 -9 -4 -6 -9 3 -5 -1 -22 -9 -37 -8 -16 -15 -35 -15 -41 0 -7 -5 -13 -11 -13
-5 0 -7 -5 -4 -10 4 -6 2 -16 -3 -23 -5 -7 -17 -34 -27 -62 -10 -27 -23 -55
-28 -62 -5 -7 -6 -16 -3 -22 3 -5 -1 -12 -10 -15 -8 -3 -12 -11 -8 -17 4 -7 1
-17 -7 -23 -8 -6 -14 -15 -15 -21 -1 -23 -17 -65 -24 -65 -5 0 -7 -8 -6 -17 2
-10 -1 -21 -6 -24 -5 -3 -10 -12 -11 -20 -2 -8 -5 -18 -8 -24 -9 -15 -33 -89
-30 -94 2 -2 -3 -7 -10 -12 -7 -4 -14 -16 -15 -26 -2 -11 -10 -33 -19 -49 -8
-16 -15 -37 -15 -46 0 -10 -5 -18 -11 -18 -6 0 -9 -9 -6 -20 3 -10 1 -20 -3
-22 -5 -2 -10 -10 -12 -18 -2 -8 -7 -18 -12 -22 -5 -3 -10 -15 -11 -25 0 -10
-5 -25 -10 -33 -13 -19 -36 -81 -37 -97 -1 -7 -5 -13 -10 -13 -4 0 -7 -3 -6
-7 1 -5 -6 -25 -15 -47 -9 -21 -17 -45 -17 -52 0 -8 -4 -14 -10 -14 -5 0 -10
-9 -10 -19 0 -11 -5 -23 -11 -26 -6 -4 -8 -13 -5 -20 3 -8 1 -15 -5 -17 -5 -2
-11 -14 -14 -27 -2 -12 -9 -29 -16 -37 -6 -8 -8 -14 -3 -14 4 0 3 -5 -4 -12
-7 -7 -12 -20 -12 -30 0 -10 -5 -18 -12 -18 -6 0 -9 -3 -5 -6 3 -4 -3 -24 -14
-45 -11 -22 -17 -39 -14 -39 3 0 -2 -14 -10 -30 -9 -17 -13 -36 -9 -42 4 -6 3
-8 -3 -5 -10 6 -27 -27 -24 -45 1 -5 -4 -8 -9 -8 -5 0 -9 -3 -8 -7 1 -5 -3
-23 -9 -41 -7 -18 -12 -35 -12 -37 -1 -3 -12 -28 -26 -55 -14 -28 -22 -50 -19
-50 4 0 1 -7 -6 -15 -7 -8 -9 -15 -4 -15 14 -1 -24 -21 -46 -25 -11 -2 -20 2
-20 8 0 7 -4 6 -10 -3 -6 -9 -10 -10 -10 -3 0 12 -44 12 -56 0 -4 -3 -15 -2
-25 4 -11 5 -19 6 -19 1 0 -4 -9 -8 -20 -8 -11 0 -20 3 -20 7 0 9 -21 6 -39
-5 -8 -5 -16 -4 -21 4 -10 15 -11 16 -37 1 -18 -9 -23 -9 -23 1 0 10 -2 10 -9
-1 -7 -11 -9 -11 -13 0 -4 11 -8 11 -19 2 -20 -16 -31 -17 -40 -1 -7 10 -9 10
-9 -2 0 -12 -2 -12 -8 -2 -7 9 -15 10 -35 3 -18 -7 -27 -7 -27 0 0 6 -7 6 -20
-1 -12 -6 -20 -7 -20 -1 0 11 -19 9 -39 -3 -8 -5 -16 -4 -21 4 -10 15 -11 16
-37 1 -18 -9 -23 -9 -23 1 0 10 -2 10 -9 -1 -7 -11 -9 -11 -13 0 -3 8 -9 10
-19 4 -21 -14 -39 -15 -39 -2 0 7 -5 5 -10 -3 -5 -8 -10 -10 -10 -4 0 6 -7 11
-15 11 -8 0 -15 -3 -15 -6 0 -5 -49 -9 -173 -11 -23 -1 -35 -5 -31 -12 4 -7 0
-7 -13 1 -14 7 -24 7 -33 -2 -10 -9 -11 -9 -5 2 6 10 4 12 -6 5 -8 -5 -21 -9
-29 -10 -8 0 -42 -4 -75 -9 -33 -5 -68 -9 -77 -8 -10 0 -18 -5 -18 -11 0 -6
-5 -4 -10 4 -6 10 -10 11 -10 3 0 -7 -3 -12 -7 -11 -9 2 -59 -7 -140 -26 -10
-2 -25 -6 -33 -8 -8 -1 -18 -7 -22 -13 -5 -6 -8 -5 -8 4 0 10 -3 11 -13 2 -8
-6 -22 -12 -33 -14 -38 -7 -79 -20 -89 -27 -5 -4 -27 -10 -47 -14 -21 -4 -38
-10 -38 -14 0 -4 -10 -8 -22 -9 -11 -1 -24 -6 -27 -10 -3 -4 -13 -9 -21 -11
-8 -2 -48 -19 -88 -38 -41 -19 -80 -34 -88 -34 -8 0 -14 -4 -14 -10 0 -5 -19
-19 -42 -31 -24 -12 -51 -28 -60 -37 -10 -8 -18 -11 -18 -7 0 5 -9 -1 -20 -13
-12 -12 -24 -22 -29 -22 -4 0 -19 -9 -32 -20 -13 -11 -28 -23 -34 -27 -71 -55
-215 -189 -215 -201 0 -4 -11 -16 -25 -26 -13 -10 -22 -22 -19 -27 3 -5 1 -9
-4 -9 -5 0 -26 -26 -48 -57 -21 -32 -42 -60 -47 -61 -4 -2 -5 -8 -1 -13 3 -5
0 -9 -5 -9 -6 0 -11 -7 -11 -15 0 -8 -5 -15 -11 -15 -5 0 -8 -4 -5 -9 3 -5 -1
-14 -9 -21 -8 -7 -13 -16 -10 -20 3 -4 -2 -13 -10 -20 -8 -7 -15 -16 -15 -20
0 -4 -8 -25 -17 -46 -9 -22 -16 -42 -15 -46 1 -5 -2 -8 -8 -8 -6 0 -9 -3 -8
-7 3 -8 -17 -79 -33 -121 -5 -13 -9 -32 -9 -42 0 -11 -4 -20 -10 -20 -5 0 -8
-10 -6 -22 2 -13 -2 -39 -9 -59 -9 -25 -10 -41 -3 -54 8 -14 8 -16 -2 -10 -10
6 -12 4 -7 -8 3 -10 3 -17 -1 -17 -4 0 -8 -35 -10 -78 -3 -101 -8 -147 -17
-163 -5 -6 -4 -10 1 -7 5 4 10 -26 11 -65 3 -95 10 -186 18 -217 4 -14 7 -33
7 -43 -1 -9 3 -15 7 -13 4 3 7 -5 6 -17 -1 -12 2 -28 8 -34 5 -7 7 -13 3 -13
-3 0 0 -16 8 -35 8 -19 12 -35 9 -35 -3 0 1 -7 8 -16 7 -9 14 -23 15 -32 2 -8
8 -18 14 -22 7 -4 11 -9 10 -11 -1 -2 4 -17 10 -34 6 -16 10 -31 8 -33 -2 -2
5 -8 15 -13 9 -6 15 -14 12 -20 -4 -5 1 -9 10 -9 9 0 14 -4 10 -10 -3 -5 8
-22 25 -38 16 -16 30 -32 30 -35 0 -18 151 -146 220 -186 53 -31 124 -64 133
-63 4 1 7 -3 7 -9 0 -5 5 -7 10 -4 6 3 10 2 10 -2 0 -5 12 -10 26 -11 14 -1
35 -8 46 -16 11 -8 27 -12 34 -9 8 3 14 0 14 -5 0 -6 8 -10 18 -10 22 1 46 -5
52 -14 3 -4 21 -9 40 -11 19 -2 42 -7 51 -11 9 -4 20 -6 25 -5 5 1 11 0 14 -1
13 -5 48 -10 82 -12 21 -2 38 -5 38 -8 0 -3 33 -5 74 -5 42 0 72 -4 68 -9 -3
-5 5 -7 16 -4 12 4 25 2 28 -3 4 -6 11 -6 18 0 7 6 16 8 20 4 11 -11 36 -12
36 -1 0 6 6 5 15 -2 11 -9 15 -9 15 -1 0 7 5 9 13 4 6 -4 69 -8 139 -8 70 0
129 -3 132 -5 2 -3 -4 -22 -14 -42 -10 -20 -15 -39 -12 -42 3 -4 0 -6 -7 -6
-7 0 -10 -4 -6 -9 3 -5 1 -12 -5 -16 -5 -3 -10 -17 -10 -30 0 -13 -5 -25 -11
-27 -5 -2 -11 -10 -13 -18 -1 -8 -10 -33 -20 -55 -10 -22 -19 -47 -21 -55 -2
-8 -14 -37 -26 -65 -13 -27 -24 -52 -24 -55 -3 -9 -17 -45 -27 -70 -6 -14 -13
-31 -14 -39 -1 -8 -8 -17 -14 -21 -7 -4 -11 -10 -10 -14 4 -16 -13 -66 -22
-66 -6 0 -8 -3 -5 -7 4 -3 0 -17 -8 -30 -9 -13 -13 -23 -10 -23 3 0 0 -10 -7
-22 -6 -13 -13 -28 -14 -34 -1 -6 -9 -27 -17 -45 -9 -19 -30 -70 -47 -114 -18
-44 -36 -86 -42 -92 -6 -7 -7 -13 -4 -13 4 0 2 -9 -4 -21 -6 -11 -13 -30 -15
-41 -3 -12 -10 -25 -17 -30 -7 -4 -9 -8 -4 -8 4 0 1 -11 -8 -25 -9 -14 -14
-25 -10 -25 4 0 1 -7 -6 -16 -8 -8 -15 -27 -16 -42 -2 -15 -8 -28 -14 -30 -5
-2 -10 -11 -10 -21 0 -9 -8 -28 -17 -41 -10 -14 -16 -25 -14 -25 6 0 -10 -46
-35 -103 -13 -29 -24 -57 -24 -62 0 -6 -4 -10 -9 -10 -5 0 -8 -11 -7 -25 2
-13 -2 -23 -8 -22 -6 1 -10 -4 -8 -11 1 -7 -11 -39 -26 -72 -16 -32 -24 -56
-18 -53 6 4 4 -2 -5 -13 -8 -10 -21 -38 -29 -61 -7 -24 -17 -43 -21 -43 -5 0
-6 -7 -3 -15 4 -8 1 -15 -6 -15 -6 0 -8 -5 -5 -10 3 -6 2 -10 -3 -10 -5 0 -9
-7 -10 -15 -1 -8 -3 -22 -4 -30 -1 -8 -5 -15 -10 -15 -4 0 -8 -7 -8 -15 0 -9
-7 -27 -16 -40 -9 -13 -13 -29 -9 -35 3 -5 1 -10 -4 -10 -6 0 -10 -3 -9 -7 1
-5 -5 -24 -14 -44 -9 -20 -19 -45 -22 -57 -4 -12 -12 -22 -17 -22 -6 0 -8 -4
-5 -9 8 -12 -34 -111 -46 -111 -5 0 -6 -4 -3 -10 3 -5 -1 -23 -10 -40 -8 -16
-13 -30 -9 -30 4 0 1 -7 -6 -15 -6 -8 -8 -20 -4 -26 4 -7 3 -9 -3 -6 -6 4 -14
-5 -19 -21 -10 -35 -8 -31 -29 -77 -10 -22 -20 -46 -21 -53 -1 -7 -10 -24 -19
-38 -9 -14 -14 -32 -11 -40 3 -8 1 -14 -4 -14 -6 0 -10 -4 -10 -9 0 -5 -8 -26
-17 -47 -9 -22 -18 -42 -19 -46 -1 -5 -3 -11 -4 -15 -1 -5 -2 -11 -1 -15 0 -5
-3 -8 -9 -8 -6 0 -10 -3 -9 -7 3 -18 -14 -53 -25 -53 -6 0 -4 -5 4 -10 10 -6
11 -10 3 -10 -7 0 -13 -4 -13 -9 0 -5 -5 -22 -12 -38 -6 -15 -11 -31 -10 -36
1 -4 -2 -7 -8 -7 -6 0 -9 -3 -8 -7 2 -13 -14 -63 -21 -63 -4 0 -7 -10 -8 -22
-1 -11 -8 -25 -15 -29 -7 -5 -9 -9 -4 -9 5 0 3 -7 -4 -15 -7 -8 -10 -15 -6
-15 4 0 -3 -19 -15 -41 -11 -23 -22 -49 -24 -58 -12 -46 -93 -229 -100 -223
-5 4 -5 2 -1 -5 3 -6 -5 -37 -19 -68 -14 -32 -22 -62 -18 -68 3 -6 1 -7 -5 -3
-8 5 -12 -2 -12 -18 0 -14 -3 -26 -8 -26 -4 0 -16 -24 -26 -52 -10 -29 -30
-78 -43 -108 -14 -30 -26 -61 -26 -67 0 -7 -4 -13 -8 -13 -7 0 -24 -49 -21
-62 1 -5 -2 -8 -8 -8 -5 0 -10 -6 -10 -12 0 -7 -20 -57 -45 -112 -25 -54 -43
-102 -40 -106 3 -4 -2 -11 -11 -14 -8 -3 -12 -10 -9 -16 3 -5 1 -10 -5 -10 -6
0 -9 -4 -5 -9 3 -5 -1 -15 -8 -23 -8 -7 -13 -21 -11 -31 1 -9 -1 -17 -6 -17
-6 0 -19 -32 -20 -48 0 -1 -7 -16 -15 -32 -9 -17 -13 -30 -9 -30 4 0 1 -7 -7
-16 -7 -9 -13 -25 -14 -36 -1 -11 -7 -23 -14 -27 -6 -4 -9 -15 -5 -24 4 -11 1
-17 -7 -17 -7 0 -10 -3 -7 -6 4 -3 0 -21 -8 -40 -8 -19 -12 -34 -10 -34 3 0
-1 -15 -9 -34 -8 -18 -11 -36 -8 -40 4 -3 2 -6 -3 -6 -5 0 -11 -12 -12 -27 -1
-15 -5 -29 -10 -32 -7 -6 -8 -13 -14 -68 -1 -13 -5 -23 -8 -23 -3 0 -6 -8 -7
-18 -1 -9 -5 -30 -8 -47 -4 -16 -7 -42 -7 -57 0 -16 -4 -28 -8 -28 -5 0 -7
-22 -7 -49 1 -27 -1 -47 -5 -44 -5 2 -8 -8 -9 -24 -2 -58 -9 -116 -14 -121 -2
-3 1 -12 8 -20 6 -9 7 -13 1 -9 -7 4 -10 -13 -10 -53 1 -33 -1 -60 -5 -60 -4
0 -4 -13 1 -29 5 -19 4 -33 -3 -40 -8 -8 -8 -11 0 -11 8 0 11 -15 9 -40 -2
-22 2 -41 8 -44 7 -3 6 -5 -2 -5 -9 -1 -10 -7 -4 -19 4 -9 7 -28 6 -42 -1 -14
2 -35 7 -47 6 -16 5 -23 -4 -23 -8 -1 -7 -5 3 -13 8 -7 16 -25 17 -42 2 -42
10 -77 39 -175 32 -106 46 -140 56 -134 4 3 5 -2 2 -11 -4 -9 1 -24 11 -34 9
-11 18 -25 20 -33 9 -37 18 -58 26 -58 5 0 9 -5 9 -10 0 -13 100 -164 112
-168 4 -2 8 -10 8 -18 0 -9 5 -12 10 -9 6 3 10 1 10 -5 0 -6 29 -40 64 -75 35
-35 61 -66 58 -69 -3 -3 1 -6 9 -6 8 0 26 -13 39 -28 14 -15 41 -39 60 -52 19
-13 44 -32 54 -42 11 -10 28 -20 38 -24 10 -3 18 -10 18 -15 0 -6 5 -7 10 -4
6 3 10 2 10 -3 0 -5 12 -15 28 -23 15 -8 36 -22 46 -31 10 -10 23 -15 27 -12
5 2 17 -4 29 -16 11 -11 26 -20 34 -20 8 0 22 -7 30 -16 9 -8 21 -12 27 -8 8
5 9 3 4 -6 -5 -8 -3 -11 6 -8 8 3 29 -4 47 -14 18 -10 39 -18 47 -18 8 0 15
-3 15 -8 0 -8 120 -49 133 -44 4 1 7 -3 7 -8 0 -5 3 -9 8 -9 4 1 9 1 12 -1 3
-1 15 -3 27 -6 44 -8 48 -9 53 -15 3 -4 21 -9 40 -12 19 -3 52 -11 73 -17 20
-6 42 -8 47 -5 6 3 10 1 10 -4 0 -6 3 -10 8 -10 22 4 63 -2 59 -8 -3 -5 11 -9
31 -10 102 -4 152 -9 152 -13 0 -6 60 -11 162 -13 32 -1 58 -6 58 -11 0 -5 7
-3 15 4 8 7 15 9 15 4 0 -5 16 -9 35 -10 22 0 32 3 28 10 -5 8 -3 8 8 0 16
-12 29 -12 47 -1 6 5 12 4 12 -2 0 -10 18 -10 36 2 6 3 14 3 18 -1 12 -11 76
-9 76 3 0 7 3 7 8 0 9 -13 95 -14 104 0 5 7 8 7 8 0 0 -6 16 -11 35 -11 19 0
35 5 35 11 0 6 3 7 8 0 10 -14 72 -14 72 -1 0 8 3 8 8 1 4 -6 21 -11 37 -11
17 0 33 5 37 11 5 7 8 7 8 0 0 -13 109 -13 129 -1 9 6 12 5 7 -2 -8 -14 56
-11 66 3 5 7 8 6 8 -1 0 -11 79 -12 97 -1 7 4 14 3 18 -3 3 -5 11 -10 16 -10
6 0 7 5 3 12 -5 7 -3 8 7 2 19 -12 82 -11 91 1 5 7 8 6 8 -1 0 -11 79 -12 97
-1 7 4 14 3 18 -3 3 -5 11 -10 16 -10 6 0 7 5 3 12 -5 7 -3 8 7 2 20 -12 89
-12 89 1 0 5 5 3 10 -5 9 -13 11 -13 20 0 5 8 10 10 10 5 0 -6 16 -11 35 -11
19 0 35 5 35 11 0 7 3 7 8 0 9 -14 65 -14 74 0 5 7 8 7 8 0 0 -6 16 -11 35
-11 19 0 35 5 35 11 0 7 3 7 8 0 9 -13 162 -13 162 0 0 7 3 7 8 0 9 -13 105
-13 114 0 5 7 8 7 8 0 0 -5 27 -10 59 -11 39 0 58 4 53 10 -4 8 -1 8 9 0 16
-12 29 -12 47 -1 6 5 12 4 12 -2 0 -10 18 -10 36 2 6 3 14 3 18 -1 12 -11 76
-9 76 3 0 7 3 7 8 0 9 -13 95 -14 104 0 5 7 8 7 8 0 0 -6 16 -11 35 -11 19 0
35 5 35 11 0 6 3 7 8 0 10 -14 72 -14 72 -1 0 8 3 8 8 1 9 -14 65 -14 74 0 5
7 8 7 8 0 0 -13 109 -13 129 -1 7 5 16 5 20 0 5 -8 44 -10 61 -4 6 2 86 8 153
12 26 1 47 5 47 8 0 3 18 5 40 3 26 -1 40 2 40 10 0 7 4 6 10 -3 5 -8 10 -10
10 -4 0 5 15 10 33 9 17 -1 37 1 42 4 11 6 41 12 70 14 11 1 23 7 27 12 5 6 8
5 8 -4 0 -10 3 -11 13 -3 7 6 26 13 42 16 17 2 30 5 30 6 0 1 13 4 30 6 16 3
36 11 44 17 12 10 13 9 6 -3 -8 -13 -6 -13 8 -1 9 7 24 11 32 7 9 -3 15 0 15
8 0 8 9 12 25 11 14 -2 25 1 25 6 0 6 4 8 8 5 5 -3 19 1 33 7 13 7 31 12 39
12 8 0 21 6 29 13 7 7 20 11 27 8 8 -3 14 -2 14 3 0 9 42 24 68 26 7 0 16 5
20 10 8 11 58 37 81 41 8 1 18 9 22 16 5 7 9 9 9 4 0 -5 8 -2 18 7 9 8 24 17
32 19 8 2 23 11 34 21 11 9 26 17 33 17 7 0 13 5 13 10 0 6 4 10 10 10 13 0
100 62 100 72 0 4 5 8 12 8 6 0 18 7 27 15 9 8 51 48 93 88 43 41 80 72 83 69
3 -3 5 2 5 11 0 9 6 20 13 24 15 10 90 103 83 103 -3 0 2 9 12 19 26 29 37 45
40 60 1 7 9 20 17 28 8 8 15 21 15 29 0 8 5 14 11 14 5 0 7 5 4 10 -3 6 -1 10
4 10 6 0 10 3 9 8 -1 4 4 21 11 37 7 17 12 32 11 34 -1 2 3 7 8 10 7 5 40 90
48 124 1 4 2 8 4 10 5 6 12 44 12 64 0 13 4 20 9 17 5 -3 9 5 10 18 0 13 3 32
5 43 3 11 6 37 7 57 1 21 5 38 10 38 4 0 7 7 7 16 0 9 -5 13 -12 9 -7 -4 -6
-1 2 7 11 9 15 34 15 85 0 40 2 73 5 73 8 0 5 44 -4 58 -4 7 -1 15 9 18 14 6
14 8 -2 20 -10 7 -13 14 -7 14 7 0 9 15 5 42 -4 24 -6 62 -6 86 0 23 -2 42 -5
42 -3 0 -6 17 -8 37 -3 51 -9 78 -20 100 -5 10 -7 24 -5 31 3 6 1 12 -4 12 -5
0 -10 12 -11 27 -1 15 -7 32 -12 37 -6 6 -10 18 -10 28 0 10 -4 18 -10 18 -5
0 -10 7 -10 15 0 15 -19 55 -31 65 -3 3 -12 19 -19 37 -8 17 -18 29 -22 27 -4
-3 -8 2 -8 10 0 9 -5 16 -12 16 -6 0 -9 3 -5 6 13 13 -214 224 -240 224 -6 0
-22 11 -37 25 -14 13 -26 22 -26 20 0 -2 -26 9 -57 25 -32 17 -63 30 -70 30
-7 0 -13 5 -13 11 0 6 -7 9 -15 5 -8 -3 -15 -2 -15 3 0 4 -7 8 -15 9 -8 1 -22
3 -30 4 -8 1 -15 5 -15 10 0 4 -9 8 -20 8 -11 0 -20 3 -20 8 0 4 -14 8 -32 9
-17 1 -34 6 -37 10 -3 5 -15 9 -26 10 -23 2 -60 11 -60 13 0 1 -13 3 -30 5
-16 1 -32 4 -35 5 -3 1 -8 2 -12 1 -5 0 -8 4 -8 10 0 8 -5 8 -15 -1 -9 -8 -15
-8 -15 -2 0 6 -8 11 -17 11 -19 0 -74 7 -138 16 -22 4 -68 7 -102 8 -35 1 -63
5 -63 10 0 10 -23 4 -32 -8 -5 -7 -8 -6 -8 1 0 13 7 13 -922 13 -751 1 -756 1
-751 21 3 11 10 20 15 20 6 0 8 7 4 15 -3 8 0 20 7 27 7 8 13 20 15 28 2 8 7
17 10 20 4 3 9 16 10 29 2 14 10 34 18 46 8 12 11 25 8 28 -4 4 1 10 10 13 14
5 15 9 4 15 -9 6 -10 9 -1 9 7 0 10 7 6 17 -4 11 -3 14 5 9 11 -6 17 12 13 37
0 4 4 7 10 7 6 0 9 6 6 14 -3 8 -1 16 4 18 5 2 11 13 12 25 0 13 7 25 13 27 7
3 11 13 10 23 -2 10 3 24 11 31 7 8 11 17 8 22 -3 5 -1 11 5 15 5 3 10 15 10
26 0 10 5 19 10 19 6 0 10 9 10 19 0 11 5 23 10 26 6 4 8 10 5 15 -3 5 0 12 6
15 5 4 8 13 5 21 -3 8 -1 14 4 14 6 0 10 7 10 15 0 8 5 15 11 15 6 0 9 7 5 15
-3 8 -1 15 5 15 6 0 7 5 4 10 -3 6 -2 10 4 10 6 0 8 7 5 15 -4 8 -1 15 6 15 6
0 9 4 5 9 -3 5 -1 12 5 16 6 4 8 11 5 16 -4 5 -1 9 4 9 6 0 11 14 11 31 0 17
4 28 10 24 9 -5 12 8 9 31 0 4 3 10 8 13 11 7 55 121 47 121 -3 0 2 7 10 16 9
8 14 20 11 25 -4 5 -1 9 5 9 7 0 10 7 6 15 -3 8 -1 15 4 15 6 0 9 3 8 8 -1 4
6 22 15 39 10 18 15 33 11 33 -4 0 -1 6 5 13 6 8 8 17 4 20 -3 4 -1 7 5 7 7 0
12 9 12 19 0 11 5 23 10 26 6 4 8 11 5 16 -4 5 -1 9 5 9 6 0 9 4 5 9 -3 5 -1
12 5 16 6 4 8 11 5 16 -4 5 -1 9 6 9 7 0 9 3 6 7 -4 3 -2 12 5 20 6 7 8 16 5
19 -3 4 1 13 9 21 8 8 12 19 9 24 -4 5 -1 9 4 9 6 0 10 3 9 8 -1 4 6 24 15 46
9 21 17 45 17 52 0 8 5 14 11 14 5 0 7 4 4 10 -3 6 -1 10 4 10 6 0 10 3 9 8
-1 4 4 23 11 42 8 19 13 38 12 43 0 4 4 7 10 7 5 0 8 4 5 9 -4 5 1 22 9 38 8
15 21 45 30 66 8 20 21 52 29 70 8 17 18 44 21 60 4 15 11 30 16 33 5 3 7 10
4 15 -4 5 -1 9 4 9 6 0 11 8 11 18 0 10 7 28 16 40 8 12 13 22 10 22 -3 0 6
25 19 55 14 30 21 55 17 55 -4 0 -1 4 6 8 7 5 14 18 16 29 3 12 11 34 20 51 8
16 12 32 9 36 -4 3 -1 6 6 6 7 0 9 5 6 10 -3 6 -2 10 3 10 5 0 9 6 9 13 0 6 7
29 16 50 10 20 24 53 33 73 9 20 17 42 19 48 10 38 18 56 27 56 5 0 7 4 3 9
-3 5 0 13 6 16 5 4 8 13 5 20 -2 7 4 22 15 34 11 12 15 21 8 21 -8 0 -7 5 2
16 7 9 14 23 15 32 2 8 6 18 11 21 4 3 8 11 9 16 2 19 17 58 39 101 13 26 18
44 11 44 -6 0 -4 5 4 10 8 5 15 13 16 17 2 26 17 62 23 58 4 -2 8 2 8 10 0 21
57 165 65 165 4 0 5 7 2 15 -4 8 -1 15 6 15 6 0 8 5 5 10 -3 6 -1 10 5 10 6 0
9 4 6 9 -3 4 3 26 14 48 10 22 22 51 25 66 4 15 11 27 16 27 5 0 8 3 7 8 -3 9
32 103 45 119 5 7 6 17 2 23 -3 5 -2 10 4 10 6 0 14 12 17 27 4 15 13 38 20
52 8 14 14 32 14 39 0 6 4 12 9 12 5 0 8 8 7 18 -2 9 1 20 6 23 5 3 11 15 13
25 2 10 4 20 5 22 2 1 3 5 4 10 7 29 19 52 27 52 6 0 8 4 4 9 -3 5 0 13 6 16
5 4 8 13 5 21 -3 8 -1 14 4 14 6 0 10 9 10 19 0 11 7 26 15 35 8 8 16 27 17
42 2 14 8 29 15 31 7 3 11 9 8 14 -3 4 4 29 16 55 12 25 22 53 22 60 0 8 3 14
7 14 4 0 12 18 19 40 6 22 15 41 19 41 4 1 268 3 587 5 606 4 632 4 653 17 7
5 12 4 12 -2 0 -7 9 -7 23 -3 12 5 39 7 60 6 20 -1 37 1 37 5 0 3 21 6 46 6
25 -1 47 2 49 6 3 3 16 5 30 4 14 -2 25 0 25 4 0 4 12 6 28 5 15 0 48 5 75 12
26 7 47 10 47 7 0 -3 7 0 15 7 12 10 15 10 15 0 0 -9 4 -9 13 -2 6 5 28 13 47
17 19 4 47 9 62 12 15 3 26 9 23 13 -2 4 7 6 20 4 14 -1 25 2 25 7 0 6 4 8 9
5 5 -4 22 -1 38 6 15 6 30 12 33 13 3 0 30 9 60 20 30 11 58 18 63 17 4 -1 7
3 7 8 0 6 4 10 9 10 5 0 22 5 38 12 15 6 34 12 42 14 8 1 17 8 21 14 4 7 11
12 16 12 22 2 64 21 64 30 0 5 5 6 10 3 6 -3 13 0 16 9 3 8 12 12 20 9 8 -3
14 0 14 6 0 6 7 11 15 11 8 0 15 5 15 10 0 6 5 10 10 10 14 0 93 52 103 68 5
7 12 10 17 7 5 -3 16 5 24 17 9 12 16 19 16 14 0 -5 8 1 19 12 10 12 22 22 25
22 18 0 257 256 249 267 -1 1 8 14 22 29 13 14 30 39 37 55 7 16 17 29 21 29
5 0 6 4 3 9 -4 5 -2 11 3 13 10 4 72 134 91 193 7 22 17 46 23 53 5 6 7 12 3
12 -3 0 -1 12 5 28 12 30 21 70 22 92 0 8 3 20 8 25 4 6 10 33 13 60 3 28 8
64 10 80 3 17 6 52 7 78 1 26 7 50 11 53 5 3 4 12 -2 19 -8 9 -8 15 0 20 6 3
7 12 3 18 -11 19 -11 47 1 47 7 0 7 3 1 8 -15 11 -17 32 -2 32 9 0 9 2 -1 9
-8 4 -14 12 -14 16 0 4 6 12 14 16 7 5 8 9 2 9 -6 0 -12 17 -13 38 -1 42 -8
106 -11 110 -3 2 -7 30 -9 58 0 8 -4 13 -8 11 -7 -5 -9 7 -13 76 -1 9 -6 17
-11 17 -6 0 -7 5 -4 10 3 6 1 10 -5 10 -6 0 -9 3 -7 8 3 4 -3 25 -14 46 -10
22 -19 45 -19 52 0 7 -4 14 -9 16 -5 2 -11 10 -13 18 -3 14 -7 21 -36 55 -7 8
-10 15 -7 15 4 0 0 6 -7 14 -7 8 -29 33 -48 56 -56 67 -148 150 -163 147 -5
-1 -13 6 -18 16 -6 9 -17 17 -24 17 -8 0 -15 4 -15 9 0 5 -8 11 -17 14 -23 7
-76 39 -84 50 -3 5 -9 8 -13 8 -3 -1 -23 6 -44 15 -39 18 -59 24 -79 26 -7 1
-14 7 -17 14 -3 7 -14 11 -26 9 -11 -2 -20 0 -20 4 0 8 -55 24 -90 26 -8 1
-14 7 -12 14 1 7 -2 10 -8 6 -6 -3 -36 -1 -68 7 -31 7 -63 12 -69 11 -7 0 -13
4 -13 11 0 6 -5 4 -10 -4 -7 -12 -10 -12 -10 -1 0 7 -6 11 -15 8 -8 -4 -17 -2
-21 4 -4 6 -11 6 -20 -2 -11 -9 -14 -9 -14 1 0 7 -7 10 -15 6 -8 -3 -15 -1
-15 3 0 5 -9 7 -19 4 -10 -3 -28 0 -40 6 -16 9 -21 9 -21 0 0 -9 -3 -9 -14 0
-10 9 -16 9 -21 1 -5 -8 -13 -6 -26 6 -10 9 -19 13 -19 8 0 -12 -81 -5 -97 8
-7 5 -13 5 -17 -1 -8 -12 -46 -10 -46 2 0 5 -7 4 -16 -4 -10 -8 -18 -9 -22 -2
-7 11 -47 11 -58 0 -4 -3 -15 -2 -25 4 -11 5 -19 6 -19 1 0 -4 -9 -8 -20 -8
-11 0 -20 3 -20 7 0 9 -21 6 -39 -5 -8 -5 -16 -4 -21 4 -8 13 -16 13 -42 -1
-13 -7 -18 -6 -18 3 0 10 -2 10 -9 -1 -7 -11 -9 -11 -13 0 -3 8 -9 10 -19 3
-19 -12 -33 -12 -41 1 -5 6 -8 4 -8 -5 0 -12 -2 -12 -8 -2 -7 9 -15 10 -35 3
-18 -7 -27 -7 -27 0 0 6 -7 6 -20 -1 -12 -6 -20 -7 -20 -1 0 10 -19 9 -37 -2
-8 -5 -13 -3 -13 4 0 9 -3 9 -14 0 -11 -9 -15 -8 -20 4 -3 9 1 18 9 22 9 3 14
10 13 17 -1 6 17 50 40 98 23 48 43 93 44 100 2 7 6 15 9 18 3 3 16 28 28 55
13 28 39 82 57 120 18 39 34 77 36 85 2 8 8 18 13 22 6 4 10 11 11 15 0 4 10
28 21 53 12 25 21 47 20 50 -1 3 8 20 21 38 13 17 21 32 18 32 -3 0 6 22 19
49 14 27 25 54 25 60 0 6 4 11 9 11 5 0 12 14 16 30 4 17 11 30 16 30 5 0 8 3
7 8 -3 12 13 52 21 52 4 0 7 10 8 22 1 11 7 24 13 28 7 4 11 9 10 11 -2 5 18
57 36 93 8 16 14 35 14 43 0 7 5 13 12 13 6 0 9 3 6 6 -4 3 1 22 9 42 24 58
31 77 29 83 0 3 4 12 10 20 7 8 15 29 19 47 3 17 10 32 15 32 5 0 7 9 5 20 -2
11 0 20 6 20 5 0 8 3 7 8 0 4 1 14 4 22 3 8 16 49 29 90 13 41 26 77 29 80 3
3 5 15 4 28 -1 12 2 22 5 22 4 0 7 8 8 18 0 9 4 28 8 42 3 14 8 36 9 50 2 14
6 32 10 40 5 15 13 50 22 105 3 17 7 35 9 42 2 7 0 15 -6 19 -6 4 -5 11 3 21
13 17 17 56 17 203 1 183 -2 211 -19 205 -11 -5 -12 -3 -4 5 8 8 9 24 3 48 -4
20 -6 40 -3 44 3 4 0 8 -6 8 -6 0 -9 4 -6 8 3 5 -1 20 -8 33 -7 14 -12 33 -10
42 1 9 -2 17 -6 17 -5 0 -12 16 -16 35 -3 19 -10 35 -15 35 -5 0 -8 3 -7 8 1
4 -3 17 -10 30 -7 12 -9 22 -5 22 4 0 0 5 -9 11 -10 5 -18 19 -18 29 0 11 -4
20 -10 20 -5 0 -10 7 -10 15 0 8 -4 15 -9 15 -5 0 -12 8 -16 19 -3 10 -13 28
-23 38 -9 11 -28 35 -42 53 -29 37 -158 170 -166 170 -3 0 -16 12 -29 26 -14
15 -25 24 -25 20 0 -4 -7 0 -16 9 -9 9 -29 24 -43 33 -14 9 -30 20 -36 25 -36
27 -84 54 -89 49 -3 -3 -6 0 -6 7 0 7 -4 10 -9 6 -5 -3 -16 1 -24 9 -8 8 -17
12 -21 9 -3 -4 -6 -1 -6 5 0 7 -9 12 -20 12 -11 0 -20 5 -20 10 0 6 -3 9 -7 8
-10 -2 -126 34 -133 42 -3 3 -16 7 -30 9 -28 4 -53 9 -60 11 -3 1 -9 2 -14 1
-4 -1 -14 4 -22 10 -11 9 -14 9 -14 -1 0 -9 -4 -9 -12 -3 -7 6 -21 9 -30 8
-10 -2 -18 0 -18 4 0 3 -17 6 -37 6 -21 0 -57 2 -80 6 -24 3 -43 3 -43 -2 0
-4 -16 -3 -35 1 -24 5 -35 4 -35 -4 0 -6 -5 -4 -10 4 -9 13 -10 13 -10 0 0
-11 -2 -12 -8 -2 -5 7 -11 10 -14 6z"/>
<path d="M12048 12644 c-6 -5 -62 -11 -150 -15 -21 -1 -38 -5 -38 -8 0 -3 -12
-7 -27 -7 -16 -1 -46 -5 -68 -9 -22 -4 -50 -8 -62 -9 -13 0 -23 -4 -23 -8 0
-4 -8 -7 -17 -7 -40 -1 -53 -5 -53 -14 0 -5 -6 -7 -14 -4 -7 3 -19 0 -25 -6
-6 -6 -11 -7 -11 -3 0 5 -6 3 -14 -3 -8 -7 -27 -14 -42 -17 -16 -3 -35 -11
-43 -17 -12 -10 -13 -9 -6 2 5 9 -5 6 -22 -7 -17 -12 -33 -19 -37 -15 -3 3 -6
1 -6 -6 0 -7 -4 -10 -9 -6 -5 3 -17 -3 -27 -12 -10 -10 -18 -16 -18 -14 -2 10
-66 -19 -66 -28 0 -6 -3 -10 -7 -9 -14 3 -53 -13 -53 -22 0 -5 -10 -12 -22
-16 -12 -3 -28 -13 -36 -20 -7 -8 -18 -12 -23 -9 -5 4 -9 2 -9 -4 0 -5 -15
-19 -33 -30 -18 -11 -42 -28 -54 -38 -11 -10 -35 -29 -53 -43 -17 -13 -43 -35
-56 -47 -14 -13 -30 -23 -36 -23 -6 0 -9 -2 -6 -5 3 -3 -33 -45 -79 -93 -114
-118 -135 -142 -129 -142 3 0 -2 -9 -11 -19 -31 -34 -43 -50 -43 -57 0 -4 -12
-17 -26 -30 -14 -13 -23 -28 -20 -33 3 -5 0 -11 -7 -14 -7 -3 -23 -25 -36 -51
-13 -25 -28 -43 -33 -40 -5 3 -8 2 -7 -3 3 -17 -1 -32 -13 -45 -7 -7 -20 -26
-28 -43 -8 -16 -17 -32 -20 -35 -3 -3 -16 -29 -29 -57 -14 -29 -29 -53 -34
-53 -6 0 -8 -3 -4 -6 3 -4 -5 -27 -18 -53 -33 -65 -67 -143 -69 -159 -1 -7 -9
-17 -16 -22 -8 -5 -11 -12 -8 -16 4 -3 1 -19 -7 -34 -8 -15 -11 -30 -8 -34 4
-3 1 -6 -5 -6 -7 0 -12 -9 -12 -20 0 -11 -5 -20 -11 -20 -5 0 -8 -4 -5 -9 5
-7 -18 -67 -45 -115 -8 -13 -7 -16 1 -11 6 4 2 -8 -9 -26 -11 -18 -18 -36 -15
-41 3 -4 0 -8 -7 -8 -7 0 -9 -10 -7 -25 3 -13 1 -23 -5 -22 -6 1 -13 -7 -15
-18 -2 -11 -13 -40 -25 -65 -11 -25 -20 -51 -20 -57 0 -7 -4 -13 -8 -13 -4 0
-10 -7 -13 -16 -4 -10 -2 -13 7 -8 6 4 4 -2 -6 -13 -9 -11 -14 -23 -10 -26 3
-4 1 -7 -5 -7 -7 0 -11 -3 -11 -7 1 -5 0 -11 -1 -15 -1 -5 -3 -11 -4 -15 -1
-5 -8 -19 -16 -33 -7 -14 -13 -26 -12 -27 6 -9 0 -23 -7 -19 -5 4 -7 -3 -4
-14 3 -11 0 -20 -6 -20 -6 0 -11 -11 -11 -25 0 -14 -4 -25 -10 -25 -5 0 -10
-9 -10 -20 0 -11 -4 -20 -8 -20 -4 0 -8 -8 -9 -18 -1 -10 -13 -43 -27 -74 -14
-31 -26 -61 -26 -67 0 -5 -7 -17 -16 -25 -10 -10 -11 -16 -3 -16 8 0 8 -4 1
-12 -5 -7 -22 -42 -36 -78 -15 -36 -32 -75 -38 -87 -6 -11 -7 -27 -3 -34 5 -8
4 -10 -3 -5 -7 4 -12 1 -12 -6 0 -7 -9 -30 -20 -51 -11 -20 -20 -38 -19 -39 0
-3 -17 -52 -28 -78 -3 -8 -5 -18 -5 -22 1 -5 -3 -8 -10 -8 -6 0 -8 -3 -5 -6 3
-4 1 -16 -5 -28 -7 -11 -13 -27 -14 -34 -1 -6 -13 -35 -27 -62 -14 -27 -21
-47 -15 -44 9 6 -10 -34 -22 -46 -3 -3 -7 -14 -8 -25 -2 -11 -9 -23 -15 -27
-7 -4 -8 -8 -4 -8 4 0 2 -10 -5 -22 -7 -13 -13 -25 -13 -28 -1 -12 -69 -176
-77 -187 -6 -7 -7 -17 -3 -23 3 -5 2 -10 -2 -10 -10 0 -50 -110 -45 -123 1 -5
-2 -6 -8 -2 -9 5 -15 -15 -11 -37 0 -5 -3 -8 -8 -8 -8 0 -18 -23 -27 -63 -2
-10 -11 -29 -20 -42 -9 -14 -13 -25 -8 -25 4 0 3 -5 -4 -12 -7 -7 -12 -20 -12
-29 0 -10 -7 -24 -15 -33 -9 -8 -16 -18 -16 -21 1 -20 -13 -64 -18 -61 -4 3
-7 -4 -8 -14 -1 -11 -9 -36 -19 -56 -10 -20 -17 -42 -17 -50 0 -8 -4 -14 -9
-14 -4 0 -8 -9 -8 -20 0 -11 -5 -20 -12 -20 -6 0 -9 -3 -5 -6 3 -4 0 -19 -8
-34 -8 -15 -11 -30 -8 -34 4 -3 1 -6 -6 -6 -8 0 -11 -7 -7 -15 3 -8 1 -15 -4
-15 -5 0 -13 -12 -16 -27 -4 -16 -15 -41 -24 -58 -8 -16 -15 -37 -15 -45 0 -8
-3 -18 -8 -21 -5 -3 -9 -12 -11 -20 -1 -8 -11 -32 -21 -54 -10 -22 -19 -47
-21 -55 -2 -8 -7 -16 -13 -18 -5 -2 -8 -9 -5 -16 3 -8 -2 -20 -10 -29 -8 -8
-13 -17 -10 -20 3 -3 1 -13 -4 -24 -14 -25 -57 -130 -73 -175 -7 -21 -16 -38
-19 -38 -4 0 -7 -6 -8 -12 -2 -30 -12 -62 -23 -68 -6 -4 -10 -10 -10 -14 3
-19 0 -27 -8 -22 -5 4 -8 -2 -6 -11 1 -10 -6 -33 -16 -51 -11 -18 -14 -30 -9
-27 6 4 2 -8 -10 -27 -11 -18 -20 -41 -20 -50 0 -10 -4 -18 -10 -18 -5 0 -10
-11 -10 -25 0 -14 -5 -25 -11 -25 -5 0 -8 -4 -4 -9 3 -5 1 -12 -3 -15 -5 -3
-15 -26 -22 -51 -7 -25 -16 -45 -19 -45 -4 0 -7 -10 -8 -22 -1 -11 -8 -25 -15
-29 -7 -5 -9 -9 -4 -9 4 0 1 -11 -8 -25 -9 -14 -14 -25 -11 -25 3 0 -2 -14
-10 -31 -9 -17 -14 -37 -11 -45 3 -8 2 -13 -2 -10 -9 5 -39 -60 -40 -88 0 -5
-4 -12 -9 -15 -9 -7 -34 -69 -36 -88 0 -7 -4 -13 -9 -13 -5 0 -7 -4 -3 -9 3
-5 -2 -17 -11 -25 -8 -9 -13 -16 -10 -16 3 0 -1 -15 -9 -34 -8 -18 -11 -36 -8
-40 4 -3 2 -6 -4 -6 -12 0 -33 -44 -33 -70 0 -11 -5 -20 -11 -20 -6 0 -9 -7
-5 -15 3 -8 2 -15 -3 -15 -7 0 -17 -23 -26 -60 0 -3 -7 -16 -14 -28 -7 -13
-10 -26 -7 -29 3 -3 -2 -12 -10 -20 -8 -8 -12 -19 -9 -24 4 -5 3 -9 -2 -9 -4
0 -13 -11 -20 -25 -6 -14 -7 -22 -2 -19 5 3 0 -11 -11 -30 -11 -20 -20 -37
-19 -39 0 -2 -25 -67 -41 -102 -13 -31 -23 -59 -26 -74 -1 -8 -6 -17 -11 -20
-4 -3 -9 -12 -10 -18 -2 -7 -4 -19 -5 -25 -2 -7 -6 -15 -10 -18 -4 -3 -9 -16
-11 -29 -2 -12 -10 -27 -18 -32 -8 -5 -11 -9 -7 -9 4 0 1 -15 -7 -34 -8 -18
-11 -36 -8 -40 4 -3 2 -6 -4 -6 -6 0 -14 -10 -18 -22 -10 -31 -12 -37 -15 -43
-1 -3 -4 -9 -5 -15 -1 -5 -4 -13 -5 -17 -1 -5 -2 -11 -1 -15 0 -5 -3 -8 -9 -8
-5 0 -10 -9 -10 -20 0 -11 -5 -20 -11 -20 -5 0 -8 -3 -5 -8 2 -4 -4 -25 -14
-47 -11 -22 -19 -45 -20 -52 0 -6 -6 -14 -12 -16 -10 -4 -10 -6 0 -6 10 -1 10
-5 -2 -17 -9 -8 -16 -24 -16 -35 0 -10 -4 -19 -10 -19 -5 0 -10 -8 -10 -18 0
-23 -22 -72 -33 -72 -5 0 -6 -4 -3 -9 3 -5 -5 -33 -17 -62 -35 -80 -40 -92
-44 -113 -2 -11 -8 -25 -14 -32 -6 -7 -8 -17 -5 -22 3 -6 -1 -15 -9 -22 -7 -6
-11 -18 -8 -26 3 -8 1 -14 -4 -14 -5 0 -10 -7 -11 -15 -1 -8 -3 -22 -4 -30 -1
-8 -5 -15 -10 -15 -4 0 -7 -3 -6 -7 4 -15 -26 -113 -34 -113 -5 0 -7 -4 -4 -8
3 -5 -1 -30 -9 -55 -8 -26 -11 -47 -8 -47 3 0 0 -7 -7 -14 -6 -8 -10 -25 -9
-38 2 -13 -1 -30 -6 -38 -5 -8 -10 -24 -12 -35 -1 -11 -5 -38 -10 -60 -4 -22
-7 -52 -7 -67 -1 -16 -3 -28 -6 -28 -3 0 -6 -16 -7 -37 -1 -20 -8 -40 -15 -44
-10 -7 -8 -9 5 -9 10 0 15 -5 12 -10 -18 -30 -28 -173 -11 -163 6 3 5 0 -1 -8
-7 -7 -13 -20 -13 -28 0 -14 2 -14 11 -1 8 12 9 8 7 -15 -2 -16 -7 -33 -13
-37 -6 -5 -4 -8 5 -8 11 0 15 -13 17 -48 1 -51 9 -113 19 -152 3 -14 6 -35 7
-47 1 -13 5 -23 10 -23 4 0 6 -4 3 -8 -3 -5 1 -21 9 -36 8 -14 10 -24 5 -21
-5 3 -3 -7 5 -21 8 -15 12 -31 9 -36 -3 -4 0 -8 5 -8 6 0 11 -6 11 -14 0 -8 5
-27 12 -43 6 -15 11 -31 10 -35 -1 -5 2 -8 6 -8 5 0 15 -18 22 -40 7 -22 17
-40 22 -40 4 0 8 -6 8 -14 0 -17 106 -179 144 -219 14 -15 26 -31 26 -34 0 -5
145 -148 191 -189 52 -44 148 -114 158 -114 6 0 11 -4 11 -10 0 -5 7 -10 15
-10 8 0 15 -5 15 -11 0 -5 5 -7 10 -4 6 3 10 2 10 -2 0 -5 17 -17 38 -28 20
-11 43 -26 50 -33 8 -7 18 -10 23 -7 5 4 9 2 9 -3 0 -8 35 -23 43 -19 2 1 11
-6 21 -16 10 -9 21 -15 26 -12 4 3 13 -2 20 -10 7 -8 16 -12 21 -9 5 3 9 1 9
-4 0 -5 6 -9 13 -9 6 0 36 -12 65 -26 28 -14 49 -21 46 -15 -4 6 5 3 18 -6 14
-9 28 -13 31 -9 4 3 7 2 7 -4 0 -6 12 -13 28 -16 15 -3 41 -11 57 -18 17 -7
33 -12 37 -11 4 1 27 -5 50 -13 51 -17 89 -26 140 -32 21 -3 36 -8 33 -13 -2
-4 8 -6 23 -6 15 1 38 -2 52 -7 24 -9 85 -18 123 -18 9 0 17 -4 17 -8 0 -4 18
-7 40 -6 23 1 46 -5 52 -12 7 -8 15 -10 22 -4 14 12 28 12 44 -1 8 -7 12 -7
12 1 0 9 5 9 20 1 15 -8 20 -8 20 2 0 9 3 9 8 2 4 -6 15 -14 26 -17 14 -6 17
-4 12 10 -6 17 -5 17 8 0 17 -22 26 -23 37 -5 5 7 9 8 9 2 0 -6 24 -10 60 -9
33 0 60 -3 60 -7 0 -4 11 -3 25 2 14 5 25 6 25 2 0 -11 104 -9 112 3 5 7 8 6
8 -1 0 -11 79 -12 97 -1 7 4 14 3 18 -3 3 -5 11 -10 16 -10 6 0 7 5 3 12 -5 7
-3 8 7 2 19 -12 82 -11 91 1 5 7 8 6 8 -1 0 -11 79 -12 97 -1 7 4 14 3 18 -3
3 -5 11 -10 16 -10 6 0 7 5 3 12 -5 7 -3 8 7 2 20 -12 89 -12 89 1 0 5 5 3 10
-5 9 -13 11 -13 20 0 5 8 10 10 10 5 0 -6 16 -11 35 -11 19 0 35 5 35 11 0 7
3 7 8 0 9 -14 65 -14 74 0 5 7 8 7 8 0 0 -6 16 -11 35 -11 19 0 35 5 35 11 0
7 3 7 8 0 9 -13 162 -13 162 0 0 7 3 7 8 0 4 -6 30 -10 57 -10 28 0 53 4 57
10 5 7 8 7 8 0 0 -5 27 -10 59 -11 39 0 58 4 53 10 -3 6 1 6 9 -1 17 -14 30
-14 47 -1 8 7 12 7 12 0 0 -11 18 -11 36 1 6 3 14 3 18 -1 12 -11 76 -9 76 3
0 7 3 7 8 0 9 -13 95 -14 104 0 5 7 8 7 8 0 0 -6 16 -11 35 -11 19 0 35 5 35
11 0 6 3 7 8 0 10 -14 72 -14 72 -1 0 8 3 8 8 1 9 -14 65 -14 74 0 5 7 8 7 8
0 0 -13 109 -13 129 -1 9 6 12 5 7 -2 -8 -14 56 -11 66 3 5 7 8 6 8 -1 0 -11
79 -12 97 -1 7 4 14 3 18 -3 3 -5 11 -10 16 -10 6 0 7 5 3 12 -5 7 -3 8 7 2
19 -12 82 -11 91 1 5 7 8 6 8 -1 0 -9 65 -12 95 -4 6 1 12 1 15 0 17 -6 40 -7
40 -1 0 4 9 7 20 7 11 0 20 -3 20 -6 0 -3 9 -6 20 -6 11 0 20 3 20 6 0 3 29 5
65 5 36 0 65 3 65 6 0 4 10 7 23 6 12 0 54 3 92 7 39 4 86 9 106 11 20 1 42 6
48 10 7 4 29 8 49 10 20 1 46 6 56 10 10 5 31 9 45 11 14 1 26 3 26 4 0 1 11
3 25 6 14 2 32 7 40 11 8 3 23 8 32 9 9 2 36 10 60 19 24 8 51 15 61 15 9 0
17 5 17 11 0 7 10 9 25 7 15 -3 29 0 33 8 4 7 9 13 12 13 9 0 45 12 62 22 10
5 25 9 33 9 8 0 15 5 15 10 0 6 9 10 20 10 11 0 20 5 20 10 0 6 3 10 8 9 15
-2 52 14 52 22 0 5 3 9 8 8 15 -2 52 14 52 22 0 5 7 9 15 9 8 0 15 5 15 11 0
5 5 7 10 4 6 -3 10 -1 10 5 0 6 5 8 10 5 6 -3 10 -2 10 2 0 5 16 17 35 27 19
11 35 23 35 28 0 4 5 8 11 8 7 0 18 8 26 17 8 10 11 12 7 4 -5 -9 -3 -12 4 -7
7 4 12 14 12 22 0 8 4 13 9 10 4 -3 34 19 65 48 31 30 56 52 56 51 0 -4 49 47
95 98 14 15 25 33 25 38 0 6 4 8 8 5 4 -3 16 11 27 30 10 19 22 34 26 34 4 0
11 9 14 20 3 11 12 26 18 33 22 23 119 207 110 207 -3 0 1 10 9 22 8 13 14 30
13 38 0 8 3 18 7 21 5 3 10 14 13 25 2 10 11 42 19 71 7 28 11 54 8 57 -3 3 0
6 6 6 6 0 9 9 7 20 -2 11 -1 20 3 20 4 0 7 16 7 35 -1 20 2 38 7 41 5 3 6 10
3 15 -4 5 -3 9 2 9 4 0 7 23 6 52 -1 29 3 58 9 65 7 9 7 13 -1 13 -7 0 -9 5
-4 13 12 19 12 37 1 37 -7 0 -7 4 0 12 10 14 10 164 -1 175 -4 3 -2 12 4 20 6
7 7 13 2 13 -5 0 -9 10 -10 23 -4 74 -7 97 -15 97 -4 0 -8 5 -8 11 0 5 5 7 11
3 8 -5 8 -1 0 13 -5 11 -13 35 -16 53 -3 18 -10 40 -14 49 -5 9 -9 18 -9 21 0
3 -7 22 -16 44 -9 21 -16 45 -16 52 0 8 -4 14 -10 14 -5 0 -10 9 -10 20 0 11
-4 20 -10 20 -5 0 -10 7 -10 15 0 8 -4 15 -8 15 -5 0 -12 11 -18 24 -13 34
-164 210 -164 192 0 -4 -6 -1 -14 6 -8 7 -12 16 -10 20 2 4 -5 9 -16 13 -11 4
-32 17 -47 31 -14 13 -32 24 -39 24 -8 0 -14 4 -14 8 0 5 -16 14 -35 22 -19 8
-35 18 -35 22 0 5 -5 6 -10 3 -6 -3 -13 0 -16 9 -3 8 -12 12 -20 9 -8 -3 -14
1 -14 8 0 7 -3 10 -6 7 -3 -4 -17 0 -31 7 -15 8 -30 12 -34 10 -4 -3 -9 2 -13
10 -3 8 -12 12 -21 9 -8 -4 -15 -1 -15 7 0 7 -3 10 -6 7 -5 -5 -57 8 -114 29
-16 6 -37 11 -70 16 -11 2 -22 6 -26 9 -3 4 -12 4 -19 2 -7 -3 -16 -1 -19 5
-4 6 -13 8 -21 4 -8 -3 -15 0 -15 7 0 10 -3 10 -15 0 -9 -8 -15 -8 -15 -2 0 6
-8 11 -17 11 -10 0 -36 2 -58 5 -22 2 -48 5 -58 5 -11 1 -15 6 -11 12 4 8 1 8
-13 1 -10 -6 -24 -7 -31 -4 -6 4 -34 7 -62 6 -27 0 -50 2 -50 6 0 3 -9 6 -20
6 -11 0 -20 -4 -20 -9 0 -4 -6 -5 -12 0 -18 11 -35 11 -912 12 l-778 1 7 23
c4 12 7 30 8 39 1 9 5 14 9 12 4 -3 9 0 9 5 2 12 5 26 9 39 1 4 2 10 1 15 0 4
4 7 10 7 6 0 9 7 5 15 -3 8 -1 15 5 15 6 0 9 6 6 14 -3 8 1 17 9 20 9 3 13 10
10 15 -4 5 0 15 7 23 8 7 12 19 9 26 -2 6 2 12 8 12 6 0 10 6 8 12 -3 7 8 41
24 75 15 34 28 69 28 78 0 8 5 15 10 15 6 0 10 7 10 16 0 8 11 40 25 70 14 30
25 61 25 69 0 8 4 15 10 15 5 0 9 3 9 8 -3 20 2 42 14 54 6 7 14 22 15 33 2
11 7 22 12 25 4 3 6 13 4 23 -1 9 1 17 6 17 4 0 10 10 14 23 3 12 6 23 6 24 1
2 7 18 15 37 8 18 11 37 7 41 -4 5 -1 5 6 1 11 -6 17 5 13 27 0 4 4 7 10 7 5
0 8 4 5 9 -4 5 1 22 9 38 14 25 35 75 40 96 2 4 4 10 5 15 1 4 2 10 1 15 0 4
4 7 9 7 5 0 9 3 8 8 -1 4 4 20 10 35 7 16 12 33 12 38 0 6 4 7 10 4 6 -4 7 1
3 11 -4 10 0 20 10 25 9 6 13 17 10 29 -3 12 0 20 6 20 7 0 10 4 6 9 -3 5 -1
12 5 16 6 4 8 11 5 16 -4 5 -1 9 5 9 6 0 10 6 9 13 -2 6 5 28 13 47 22 48 31
74 30 83 -1 4 3 7 8 7 5 0 9 3 8 8 -3 9 34 106 43 112 4 3 9 16 10 30 2 14 6
27 10 30 4 4 42 98 44 110 0 3 9 20 18 37 10 18 17 35 17 38 0 3 7 21 15 41 8
20 15 43 15 50 0 8 4 14 9 14 8 0 23 54 18 65 -1 2 6 10 16 17 10 8 17 18 16
23 -4 18 13 65 24 65 6 0 8 3 4 6 -3 4 0 19 8 34 8 15 11 30 8 33 -3 4 2 9 11
13 9 3 13 10 11 15 -3 4 3 27 15 51 11 23 20 48 20 55 0 7 4 13 9 13 6 0 8 9
6 20 -2 11 0 20 4 20 8 0 22 30 25 55 1 6 8 21 16 35 8 14 15 32 16 40 2 8 7
23 12 35 46 102 70 164 64 169 -3 3 0 6 6 6 7 0 12 9 12 19 0 11 5 23 10 26 6
4 8 11 5 16 -4 5 -1 9 6 9 7 0 10 2 7 6 -3 3 9 40 27 84 19 43 31 81 28 84 -4
3 -1 6 6 6 7 0 11 6 8 14 -3 8 -1 16 4 18 6 2 11 10 13 18 1 8 7 24 13 35 6
11 11 22 12 25 0 3 5 19 11 35 6 17 10 34 9 39 0 5 3 12 8 15 15 11 38 45 26
37 -7 -4 -13 -2 -13 3 0 6 4 11 10 11 5 0 14 18 20 40 6 21 15 42 20 45 6 4 8
10 5 15 -3 5 -1 11 5 15 6 4 8 10 5 15 -3 5 -1 11 5 15 6 4 8 11 5 16 -4 5 -1
9 4 9 6 0 11 9 11 20 0 11 4 20 8 20 5 0 9 6 9 14 0 8 8 31 18 52 20 42 26 59
28 86 1 9 5 14 9 12 4 -3 8 4 8 15 0 12 5 21 11 21 5 0 8 4 4 9 -3 5 -1 12 5
16 6 4 8 11 5 16 -4 5 -1 9 6 9 7 0 9 3 6 7 -4 3 -2 12 4 20 6 7 8 13 4 13 -4
0 0 11 9 25 9 14 13 25 9 25 -5 0 -2 4 4 8 7 4 14 17 16 27 2 11 11 37 20 59
9 21 17 42 17 47 0 5 9 24 20 44 11 19 20 37 20 40 1 8 11 39 21 60 19 44 32
80 31 88 -1 4 3 7 9 7 5 0 8 4 4 9 -3 5 0 13 6 16 5 4 8 13 5 21 -3 8 -1 14 4
14 6 0 10 8 10 18 0 10 5 23 12 30 7 7 9 12 4 12 -4 0 0 10 8 22 9 12 16 30
16 40 0 10 5 18 11 18 5 0 8 4 4 9 -3 5 1 15 8 23 7 7 12 20 12 28 0 8 3 17 7
20 4 3 9 17 11 30 2 13 9 26 16 28 9 3 9 7 0 18 -9 11 -8 15 5 20 9 3 16 10
16 15 0 5 7 26 16 47 9 20 18 45 19 55 1 11 7 22 14 27 7 4 11 9 10 11 -1 2 3
20 11 39 7 19 12 39 11 43 -1 4 5 18 14 30 8 12 15 27 15 34 0 6 5 24 12 40 6
15 11 31 10 36 -1 4 3 7 10 7 6 0 9 3 5 6 -3 4 2 28 12 55 10 26 16 50 13 53
-3 4 0 6 7 6 8 0 11 8 8 20 -3 12 0 20 8 20 8 0 11 8 8 20 -3 13 0 20 8 20 11
0 11 2 -1 10 -12 8 -12 10 -1 10 8 0 11 3 8 7 -4 3 0 17 9 31 11 17 12 22 3
16 -11 -6 -12 -5 -3 7 7 8 18 40 25 72 8 31 17 57 21 57 5 0 6 11 4 24 -2 13
-2 27 2 30 3 4 7 12 8 19 2 7 6 26 10 42 3 17 8 39 9 50 2 11 4 20 5 20 3 0
10 41 13 75 1 19 5 40 8 45 4 6 6 38 5 73 0 34 2 62 5 62 3 0 5 31 5 70 -1 38
-3 70 -7 70 -3 0 -4 18 -3 40 1 24 -3 40 -10 40 -6 0 -4 5 4 10 8 5 10 10 5
10 -6 0 -12 17 -13 37 -2 20 -6 42 -10 48 -4 5 -7 19 -7 30 0 11 -4 23 -9 27
-5 3 -10 14 -11 25 -2 19 -17 60 -40 108 -7 16 -11 33 -9 37 3 4 -2 8 -10 8
-9 0 -16 3 -15 8 2 15 -14 52 -23 52 -5 0 -6 5 -3 10 3 6 2 10 -3 10 -5 0 -15
12 -23 28 -8 15 -18 32 -24 39 -5 6 -21 26 -35 45 -27 36 -180 188 -227 226
-15 12 -39 31 -52 42 -13 11 -30 20 -38 20 -7 0 -13 5 -13 10 0 6 -16 18 -35
27 -19 9 -35 21 -35 25 0 5 -4 7 -9 4 -5 -3 -25 6 -46 19 -20 14 -41 23 -46
20 -5 -4 -9 -1 -9 4 0 6 -9 11 -20 11 -11 0 -20 5 -20 11 0 5 -4 8 -9 4 -5 -3
-12 -1 -16 5 -3 5 -15 10 -25 10 -10 0 -25 6 -32 13 -12 11 -32 15 -93 20 -11
1 -22 5 -25 9 -3 4 -23 9 -45 11 -21 2 -41 9 -43 15 -3 9 -9 9 -23 2 -10 -6
-19 -7 -19 -3 0 4 -27 8 -60 8 -33 0 -60 2 -60 5 0 8 -44 5 -58 -4 -7 -4 -12
-3 -12 3 0 7 -8 7 -25 1 -14 -5 -25 -6 -25 -1 0 11 -19 9 -39 -4 -10 -5 -16
-4 -19 3 -4 13 -15 16 -24 6z m-4323 -8133 c3 -5 2 -12 -3 -15 -5 -3 -9 1 -9
9 0 17 3 19 12 6z"/>
</g>
</svg>
